<svg xmlns="http://www.w3.org/2000/svg" xmlns:xlink="http://www.w3.org/1999/xlink" viewBox="0 0 10080 5040"><defs><clipPath id="Australia_svg__c1"><path d="M0,0H6V3H0z"/></clipPath><clipPath id="Australia_svg__c2"><path d="M0,0V1.5H6V3H6zM6,0H3V3H0V3z"/></clipPath><path id="Australia_svg__Star7" d="M0,-360 69.421398,-144.155019 281.459334,-224.456329 155.988466,-35.603349 350.974048,80.107536 125.093037,99.758368 156.198146,324.348792 0,160 -156.198146,324.348792 -125.093037,99.758368 -350.974048,80.107536 -155.988466,-35.603349 -281.459334,-224.456329 -69.421398,-144.155019z"/><path id="Australia_svg__Star5" d="M0,-210 54.859957,-75.508253 199.721868,-64.893569 88.765275,28.841586 123.434903,169.893569 0,93.333333 -123.434903,169.893569 -88.765275,28.841586 -199.721868,-64.893569 -54.859957,-75.508253z"/><use id="Australia_svg__Cstar" xlink:href="#Australia_svg__Star7" transform="scale(2.1)"/></defs><path fill="#00008b" d="M0 0H12V6H0z" transform="scale(840)"/><path d="M0,0 6,3M6,0 0,3" stroke="#fff" stroke-width=".6" clip-path="url(#Australia_svg__c1)" transform="scale(840)"/><path d="M0,0 6,3M6,0 0,3" stroke="red" stroke-width=".4" clip-path="url(#Australia_svg__c2)" transform="scale(840)"/><path d="M3,0V3M0,1.5H6" stroke="#fff" transform="scale(840)"/><path d="M3,0V3M0,1.5H6" stroke="red" stroke-width=".6" transform="scale(840)"/><g fill="#fff"><use id="Australia_svg__Comwlth" xlink:href="#Australia_svg__Cstar" x="2520" y="3780"/><use id="Australia_svg__αCrucis" xlink:href="#Australia_svg__Star7" x="7560" y="4200"/><use id="Australia_svg__βCrucis" xlink:href="#Australia_svg__Star7" x="6300" y="2205"/><use id="Australia_svg__γCrucis" xlink:href="#Australia_svg__Star7" x="7560" y="840"/><use id="Australia_svg__δCrucis" xlink:href="#Australia_svg__Star7" x="8680" y="1869"/><use id="Australia_svg__εCrucis" xlink:href="#Australia_svg__Star5" x="8064" y="2730"/></g></svg>