<svg xmlns="http://www.w3.org/2000/svg" xmlns:xlink="http://www.w3.org/1999/xlink" viewBox="0 0 1200 600"><clipPath id="Cayman_Islands_svg__c"><path d="M0,0V150H700V300H600zM600,0H300V350H0V300z"/></clipPath><path fill="#012169" d="M0 0H1200V600H0z"/><path d="M0,0 600,300M600,0 0,300" stroke="#fff" stroke-width="60"/><path d="M0,0 600,300M600,0 0,300" stroke="#c8102e" stroke-width="40" clip-path="url(#Cayman_Islands_svg__c)"/><path d="M300,0V350M0,150H700" stroke="#fff" stroke-width="100"/><path d="M300,0V350M0,150H700" stroke="#c8102e" stroke-width="60"/><path d="M0,300H600V0H1200V600H0z" fill="#012169"/><g stroke="#000" stroke-width="1.438"><g id="Cayman_Islands_svg__border" stroke="#fff" stroke-width="9.6" stroke-linejoin="round"><use xlink:href="#Cayman_Islands_svg__shield"/><use xlink:href="#Cayman_Islands_svg__motto1"/><use xlink:href="#Cayman_Islands_svg__motto2"/><use xlink:href="#Cayman_Islands_svg__rope"/><use xlink:href="#Cayman_Islands_svg__turtle"/><use xlink:href="#Cayman_Islands_svg__pineapple1"/><use xlink:href="#Cayman_Islands_svg__pineapple2"/></g><g id="Cayman_Islands_svg__motto"><g id="Cayman_Islands_svg__motto1" fill="#fcea83"><path d="M754.417 449.563c2.87535 7.66776 23.4825 17.7317 47.4443 4.79235 16.294-9.10547 26.8372-22.0448 36.9011-45.0481 2.87534-5.75082 4.31301-12.9394-2.39625-17.2525-5.27159-3.83388-13.8978-8.14701-17.7317-11.9809-1.91689-1.91694-3.83392-3.35465-5.27159-4.79236.95845.95848 1.9169 1.91695 2.87535 3.35465 9.58473 11.5016-.47923 28.2749-11.0224 38.3388-7.66771 7.18852-21.5656 24.9202-41.6934 8.14699-4.31314-3.83388-14.3771 11.9809-9.10551 24.441zM1045.79 449.563c-3.3547 7.66776-23.9618 17.7317-47.4443 4.79235-16.294-9.10547-26.8372-22.0448-37.3804-45.0481-2.39625-5.75082-3.83392-12.9394 2.87534-17.2525 5.27159-3.83388 13.8979-8.14701 17.7317-11.9809 1.91702-1.91694 3.35469-3.35465 5.27159-4.79236-.95845.95848-1.9169 1.91695-2.87535 3.35465-9.58473 11.5016.47923 28.2749 10.5432 38.3388 7.66769 7.18852 22.0448 24.9202 42.1727 8.14699 4.3132-3.83388 13.8978 11.9809 9.1055 24.441z"/><path d="m900.105,490.778c38.3388,0,97.2848-17.2525,128.914-77.6361,5.2716-10.0639,0-15.3355-6.23-18.6902-6.7093-2.87541-14.8564-9.58471-19.1694-13.8978,7.6677,7.66778,6.2301,12.9394,0.9585,21.5656-24.4411,40.735-57.9875,61.3421-104.473,61.3421-46.4859,0-80.0323-20.6071-104.473-61.3421-5.27159-8.62625-6.70939-13.8978,0.47922-21.5656-3.83392,4.31312-12.4602,11.0224-19.1695,13.8978-6.23004,3.35465-11.5016,8.62623-6.23004,18.6902,31.6295,60.3837,91.0547,77.6361,129.394,77.6361z"/></g><path d="M811.446 409.787c-.95847-4.79235-7.18853-2.87541-9.10547 2.87541-2.39617-3.35464-4.79235-6.70929-6.70929-10.5432-5.75083-8.62623-6.7093-14.3771 1.4377-22.5241 3.83389-3.83388 11.5016-8.147 16.7732-3.35464 11.0224 9.10547 5.27159 23.9618-2.39618 33.5465zM988.284 409.787c.95847-4.79235 7.66776-2.87541 9.5847 2.87541 2.39616-3.35464 4.79236-6.70929 6.70926-10.5432 5.7509-8.62623 6.7093-14.3771-1.9169-22.5241-3.35465-3.83388-11.0224-8.147-16.7732-3.35464-10.5432 9.10547-5.27159 23.9618 2.39618 33.5465zM754.417 449.563c-4.79236-7.18853-8.62624-25.8787-9.58471-30.6711-1.43771-4.31312-1.91694-8.147 3.35465-10.0639 5.27159-1.91694 10.0639 4.79235 12.4601 10.5432 2.39617 5.75082 6.23006 14.3771 10.5432 24.9202-10.5432-6.23006-19.1694-1.91695-16.7732 5.27158zM1045.79 449.563c4.3131-7.18853 8.147-25.8787 9.5847-30.6711.9585-4.31312 1.9169-8.147-3.3547-10.0639-5.2715-1.91694-10.0639 4.79235-12.4601 10.5432-2.3962 5.75082-6.23 14.3771-10.5432 24.9202 10.5432-6.23006 18.6902-1.91695 16.7733 5.27158z" id="Cayman_Islands_svg__motto2" fill="#c8102e"/><g fill="#00493d" stroke="none"><path d="m782.213 406.432-3.83389 1.91694c-.95847.47924-.95847 1.43771-.95847 1.91695h-.47923l-1.91694-4.31312h.47923c0 .47923.47924.95847 1.43771.47923l8.147-4.31312c.95847-.47923.95847-.95847.47923-1.4377l.47924-.47924 2.39618 4.79236h-.47924c-.47923-.47924-.95847-.95847-1.91694-.47924l-3.35465 1.91694 1.43771 2.87542 3.83388-1.43771c.95847-.47924.47924-1.43771.47924-1.91694h.47923l1.91694 4.31312c-.47923-.47924-.95847-.95847-1.91694-.47924l-8.147 4.31312c-.95847.47923-.95847.95847-.47923 1.4377l-.47924.47924-2.39618-4.31312.47924-.47923c.47923.47923.95847.95847 1.91694.47923l3.83388-1.91694-1.4377-3.35465zM790.36 412.662c.95847-.47923.95847-.95847.47923-1.91694h.47924l4.79235 7.18853-3.35465 2.39618v-.47924c1.91695-1.4377 1.91695-3.35464 1.43771-3.83388-.47923-.47924-.95847-.95847-.95847-1.43771-.47924 0-.47924-.47923-1.43771.47924-.47923.47923-3.35464 2.39618-3.35464 2.39618.47923.47923.95847 1.91694 3.35464.47923h.47924l-5.27159 3.83388v-.47923c2.39618-1.91694 1.43771-3.35465.95847-3.83388l-3.35465 2.39617c-.95847.47924-.95847.95847-.95847 1.43771.47924 0 .47924.47923.95847.95847.47924.95847 1.91695 1.91694 4.31312.95847l.47924.47924-3.83389 1.4377-4.79235-7.66776h.47924c.47923.47923.95847.95847 1.91694.47923l7.18853-5.27159zM798.027 430.873l-3.35464 2.87541c-.47924.47923-.47924 1.4377 0 1.91694h-.47924l-3.35465-3.35465.47924-.47923c.47923.47923.95847.95847 1.91694 0l6.23006-6.23006c.95847-.47924.95847-.95847.47924-1.91694l3.35464 3.83388c-.47923-.47924-1.4377-.47924-1.91694 0l-2.87541 2.87541 2.39618 2.39618 2.87541-2.39618c.95847-.95847.47923-1.43771 0-1.91694l.47923-.47924 3.35465 3.83389h-.47923c-.47924 0-.95848-.47924-1.91695.47923l-6.23006 5.75083c-.95847.95847-.95847 1.4377-.47923 1.91694v.47923l-3.35465-3.83388c.47924 0 1.43771.47924 1.91694 0l3.35465-3.35465-2.39618-2.39617zM805.216 440.937l1.43771 1.4377c1.91694-4.31311 1.91694-4.31311 1.91694-4.31311s-1.4377.47923-3.83388 1.91694l.47923.95847-.47923.47923-.95847-.95847c-.47924.47924-.95847.47924-1.43771.95847-1.4377.95847-.95847 1.43771-.47923 1.91694v.47924l-2.39618-2.39618h.47924l1.91694-.47923c9.5847-5.27159 9.5847-5.27159 9.5847-5.27159l.47924.47923s-.47924.47924-4.79235 10.064c0 .95847-.47924 1.4377 0 2.39617l-3.83389-3.35464.47924-.47924c.47923.95847 1.4377.95847 1.91694 0 0-.47923.47923-1.43771.47923-1.91694l-1.4377-1.43771.47923-.47923zM809.05 450.522l.47923-.47924c.47924.47924.95847.47924 1.91694 0l6.23006-8.147-.47923-.47924c-.95847-.47923-2.39618-.47923-3.83388.95847v-.47923l1.91694-2.39618 7.18853 5.27159-2.39618 2.87541h-.47924c1.43771-1.4377.95848-3.35464 0-3.83388v-.47924l-6.23005 8.14701c-.95848.47923-.47924 1.4377 0 1.91694h-.47924l-3.83388-2.87541z"/><path d="m821.51 452.439-2.39618 3.35464c-.47924.95847 0 1.43771.47923 1.91695l-.47923.47923-3.83388-2.87541v-.47924c.95847.47924 1.4377.47924 1.91694-.47923l5.27159-7.18853c.47923-.95847 0-1.43771-.47924-1.91694l.47924-.47924 3.83388 2.87541v.47924c-.95847-.47924-1.43771-.47924-1.91694.47923l-2.39618 3.35465 2.87541 1.91694 2.39618-3.35464c.47924-.95848 0-1.43771-.47924-1.91695l.47924-.47923 3.83388 2.87541v.47924c-.47923-.47924-1.4377-.47924-1.91694.47923l-4.79235 7.66777c-.95847.47923-.47924.95847 0 1.4377v.47924l-4.31312-2.87541h.47924c.47923 0 .95847 0 1.4377-.47924l2.39618-3.83388-2.87541-1.91694zM831.095 465.857l.47924-.47924c.47923.47924 1.4377.47924 1.91694-.47923l3.83388-8.14701c.47924-.95847 0-1.4377-.47923-1.91694l8.147 3.83389-1.91694 3.83388-.47924-.47924c1.43771-1.91694 0-3.83388-.47923-4.31311-.47924 0-.95847-.47924-1.43771-.47924s-.47924 0-.95847.95847c-.47924.47924-1.91694 3.35465-1.91694 3.35465.47923.47923 1.4377 1.4377 3.35465-.95847h.47923l-2.87541 5.75082-.47924-.47923c1.43771-2.87542-.47923-3.35465-.95847-3.35465l-1.91694 3.83388c-.47923.95847 0 1.43771.47924 1.43771v.47923l-4.79236-2.39617zM844.992 472.567c-1.43771-.95847-1.43771-3.83388 0-6.70929.95847-2.87542 2.87541-5.27159 4.79235-4.31312 1.43771.47923.95847 3.35465 0 6.23006-1.4377 3.35465-3.35465 5.27159-4.79235 4.79235h-.47924c3.35465 1.43771 5.75083-.47923 7.18853-3.83388 1.43771-2.87541.95847-6.23006-1.91694-7.66777-2.87541-1.4377-5.75082.47924-7.18853 3.83389-1.4377 3.35464-.95847 6.70929 1.91694 7.66776h.47924zM859.849 473.525l1.91695-5.75082c.47923-.95847 0-1.43771-.47924-1.91694l2.39618.47923v.47924c-.47924 0-.95847 0-1.43771.95847l-1.91694 5.75082c-.95847 2.39618-2.39618 4.31312-5.27159 3.35465-1.91694-.47924-3.35465-2.87541-2.39618-5.27159l2.39618-6.23006c.47924-.95847 0-1.4377-.47923-1.91694v-.47924l4.31311 1.91695v.47923c-.47923-.47923-1.4377-.47923-1.4377.47924l-2.39618 6.23006c-.47923 1.91694-.47923 3.83388.95847 4.31311 1.43771.47924 2.87541-.47923 3.83388-2.87541z"/><path d="M864.162 467.295c0-.47923 0-.47923-.47923-.47923l3.35464.47923 2.87542 9.10547 1.4377-5.75082c.47924-.95847 0-1.43771-.47923-1.91694l2.87541.47923-.47924.47924c-.47923 0-.95847 0-1.4377.95847l-2.39618 10.5432h-.47923l-3.83389-11.5016-2.39617 7.66776c0 1.43771.47923 1.43771.95847 1.91695v.47923l-2.87542-.95847v-.47923c.47924.47923 1.43771 0 1.43771-.95848l2.39618-8.62623-.47924-1.43771zM880.456 476.88c-.95847 4.31312-2.87541 5.27159-3.83388 5.27159h-.95847s-.47923-.47924 0-.95847l1.43771-9.58471c.47923-.47923.47923-.95847.95847-.47923h.95847c.95847 0 1.91694 1.91694 1.4377 5.75082l1.43771.47923c.95847-4.79235-.95847-6.70929-3.35465-7.18853-1.91694-.47923-4.79235-.95847-4.79235-.95847v.47924c.47923.47923 1.43771.47923.95847 1.91694l-1.43771 8.62624c-.47923.95847-.95847 1.4377-1.4377 1.4377h-.47924l4.79236.95847c2.39617.47924 4.79235 0 5.75082-5.27159l-1.43771-.47923zM884.769 473.046c0-.95847-.95847-1.43771-1.4377-1.43771v-.47923l8.62623.95847-.47923 3.83388c0-2.39618-1.43771-3.35465-2.39618-3.35465-.47923-.47923-.95847-.47923-1.43771-.47923-.47923 0-.47923 0-.47923 1.4377 0 .47924-.47924 3.83388-.47924 3.83388.47924 0 1.91695.47924 2.87542-2.39617l-.47924 6.23006h-.47923c0-2.87541-1.43771-2.87541-1.91695-2.87541l-.47923 4.31311c0 .95847 0 .95847.47923.95847l.95847.47924c1.43771 0 2.87542-.47924 3.83389-3.35465h.47923l-.95847 3.83389-9.10547-.95848c.95847 0 1.43771-.47923 1.91694-1.4377l.95847-9.10547zM900.584 478.797c0 4.31312-1.43771 5.75083-2.87541 5.75083-.47924-.47924-.47924-.47924-.95847-.47924l-.47924-.47924.47924-10.0639c0-.47923 0-.47923.47923-.47923h.95847c.95847 0 2.39618 1.4377 2.39618 5.75082h1.91694c0-4.79235-2.39618-6.23006-4.79235-6.23006-1.91694-.47923-4.79236-.47923-4.79236-.47923v.47923c.47924 0 1.43771.47924 1.43771 1.43771l-.47924 9.10547c0 .95847-.47923 1.43771-.95847 1.43771v.47923h4.31312c2.39618 0 4.79235-.95847 5.27159-6.23006h-1.91694zM914.482 482.631c0 .95847.47924.95847 1.43771.95847v.47924l-5.27159.47924c.47924-.47924 1.43771-.95848 1.43771-1.91695l-.95847-9.10547c-.47924-.95847-.95847-.95847-1.91694-.95847v-.47923l5.27158-.47924c-.47923.47924-1.4377.95847-.95847 1.91694l.95847 9.10547zM919.274 483.589l0-.47923c.47923 0 .95847-.47924.95847-1.43771l-1.91694-10.0639h-.47924c-.95847.47924-1.91694 1.43771-1.4377 3.35465h-.47924l-.47924-3.35465 8.62624-1.43771.47924 3.35465h-.47924c0-1.91694-1.43771-2.39617-2.87541-2.39617h-.47924l1.91694 10.0639c0 .95847.47924 1.4377 1.43771 1.4377v.47924l-4.79235.47923zM939.881 474.004l-1.91694-5.75083c0-.95847-.95847-.95847-1.43771-.95847v-.47923l2.39618-.95847v.47923c-.47924.47924-.47924.47924-.47924 1.43771l1.91694 6.23006c.47924 1.91694.47924 4.79235-2.39617 5.75082-1.91695.47924-4.31312-.47923-4.79236-3.35465l-1.91694-6.23006c-.47923-.95847-.95847-.95847-1.4377-.95847l-.47924-.47923 4.79235-1.43771v.47924c-.47923.47923-.95847.95847-.47923 1.91694l1.4377 6.23006c.47924 1.91694 1.91695 2.87541 3.35465 2.87541 1.43771-.47923 1.91694-2.39618 1.43771-4.79235zM945.153 470.65c2.39617-.95847 1.91694-2.39618 1.4377-3.83388-.47923-1.43771-1.4377-2.39618-2.39617-1.91694-.47924 0-.95848.47923-.47924.95847l1.43771 4.79235.47923.47924.95847 3.83388c.47924.95847 1.43771.95847 1.91694.47923v.47924l-4.31311 1.91694-.47924-.47924c.95847-.47923.95847-.95847.95847-1.91694l-3.35465-8.147c-.47923-1.4377-.95847-.95847-1.91694-.95847v-.47923l4.79236-1.91694c1.91694-.47924 3.83388 0 4.79235 1.91694.47923 2.39617-.47924 3.83388-2.39618 4.79235-.47923 0-.95847.47924-.95847.47924l-.47923-.47924zM957.134 472.087c-1.43771.47923-3.35465-1.43771-4.79235-4.79236-1.43771-2.87541-1.43771-5.75082 0-6.23006 1.4377-.47923 3.35464 1.43771 4.79235 4.31312s1.43771 5.75083 0 6.7093c2.87541-.95847 3.83388-4.31312 2.39618-7.66777-1.43771-2.87541-4.31312-4.79235-7.18853-3.83388-2.87542 1.4377-3.83389 4.79235-2.39618 7.66776 1.43771 3.35465 4.31312 5.27159 7.18853 3.83389zM957.613 458.669h-.47924-.47924l2.87542-1.91695 8.62623 4.79236-2.87541-5.27159c-.47923-.95847-1.43771-.95847-1.91694-.95847v-.47924l2.39618-.95847c-.47924.47924-.95847.95847 0 1.91694l4.79235 9.58471-.47924.47924-10.5432-5.75083 3.83388 7.18853c.47923.95847 1.43771.95847 1.91694.47924v.47923l-2.39618 1.43771v-.47924c.47924-.47923.47924-.95847 0-1.91694l-3.83388-7.66776-1.4377-.95847zM979.178 460.107l0-.47923c0-.47924.47923-.95847 0-1.91694l-5.75083-8.14701h-.47923c-.95847.47924-1.43771 2.39618 0 3.83389l-.47924.47923-1.91694-3.35464 7.18853-4.79236 1.91694 2.87541c-1.4377-1.4377-2.87541-1.4377-3.83388-.95847l-.47924.47924 5.75083 8.147c.47923.95847 1.4377.95847 1.91694.47923v.47924l-3.83388 2.87541zM984.45 448.605l2.87541 3.35465c.47923.47924 1.4377.47924 1.91694 0v.47924l-3.83388 3.35464v-.47923c.47923-.47924.47923-.95847 0-1.91694l-5.75083-7.18853c-.47923-.95847-.95847-.47924-1.91694-.47924l3.83388-3.35465v.47924c0 .47923-.47923.95847 0 1.91694l2.39618 2.87541 2.87541-1.91694-2.39617-3.35465c-.47924-.95847-1.43771-.47923-1.91695-.47923l3.83389-3.35465v.47924c-.47924.47923-.47924.95847 0 1.91694l5.75082 7.18853c.47924.47923.95847.47923 1.43771 0l.47923.47923-3.83388 3.35465-.47924-.47923c.47924-.47924.95847-.95847.47924-1.91695l-2.87541-3.35464-2.87541 2.39617zM988.763 438.541c-.47923-.47923-1.4377-.47923-1.91694 0v-.47923l6.23006-5.75083 2.87541 2.87541h-.47923c-1.43771-1.91694-3.35465-.95847-4.31312-.47923 0 .47923-.47924.47923-.95847.95847 0 0 0 .47923.47923 1.43771.47924.47923 2.87542 2.87541 2.87542 2.87541.47923-.47924 1.91694-1.43771 0-3.83389h.47923l3.83388 4.31312v.47924c-2.39617-2.39618-3.35464-.95847-3.83388-.47924l2.87541 2.87541c.47924.95848.95847.95848.95847.95848.47924-.47924.95848-.95848 1.43771-1.43771.47924-.47924.95845-1.91694 0-4.79235h.47924l1.91691 3.35464-6.23003 6.23006-.47924-.47923c.47924-.47924.95847-.95847 0-1.91694l-6.23006-6.7093zM1000.26 425.122c-.47921.47924-.47921 1.43771.4793 1.91694.9584.95847 1.9169.95847 3.8338 0 .9585-.47923 2.8755-.95847 4.3132.47924 2.3961 2.39618 1.4377 4.31312.9584 5.27159-.4792.47923-1.4377.95847-1.9169 1.4377-.4792 0-.4792 0-.4792.47924v.47923l-3.3547-2.87541h.4792c1.917.95847 3.8339 1.43771 4.7924 0 .9585-.95847 0-1.91694-.4792-2.39617-.9585-.95848-1.917-.95848-3.3547 0-1.4377.47923-3.3546.47923-4.7923-.47924-1.91698-1.91694-1.91698-3.35465-.95851-4.79235.47921-.47924 1.43771-.95847 1.91691-1.43771.4793 0 .4793 0 0-.95847l3.3547 2.39618h-.4793c-2.3961-.95847-3.8338-.47924-4.3131.47923zM1004.58 421.288c-.9584-.47924-1.4377 0-1.9169.47923h-.4792l5.2716-7.66776 3.3546 2.39618-.4792.47923c-1.917-1.43771-3.8339-.47923-4.3132 0 0 .47924-.4792.95847-.4792 1.43771-.4792 0-.4792.47923.4792.95847.4793.47923 3.3547 2.39617 3.3547 2.39617.4792-.47923 1.4377-1.4377-.4792-3.35464v-.47924l4.7923 3.83388c-2.8754-1.4377-3.3546 0-3.8339.47924l3.3547 2.39618c.9584.47923 1.4377.47923 1.4377.47923 0-.47923.4792-.95847.9585-1.4377.4792-.95848.9584-2.39618-.9585-4.31312l.4792-.47924 2.3962 2.87541-4.7924 7.18853h-.4792c.4792-.95847.4792-1.4377-.4792-2.39617l-7.1886-5.27159zM1017.52 412.662l-1.4377 2.39618c-1.917-1.91694-2.8754-3.35465-2.8754-3.35465l4.3131.95847h.9585c.4792 0 1.4377.47924 1.9169.47924 1.4377.47923.9585.95847.4792 1.91694h.4793l2.3962-4.31312c-.9585.95847-1.4378.47924-2.3962.47924-10.064-1.91694-11.0224-2.39618-11.0224-2.39618v.47924l7.6677 8.62623c.4793.47924.4793 1.43771.4793 1.91694h.4792l1.4377-2.39617-.4792-.47924c-.4793.95847-.9585 1.43771-1.917 0-.4792-.47923-.9584-.95847-.9584-.95847l1.4377-3.35465h-.9585zM1014.64 402.119c-.4793.47924-.4793 1.43771.9585 1.91695 1.4377.47923 1.9169 0 3.3546-.95847 1.4377-.95848 2.8754-1.91695 4.7924-.95848 2.8754 1.43771 2.3961 3.83389 1.9169 4.79236-.4792.47923-.9585 1.4377-1.4377 1.91694v.47924.47923l-3.8339-1.91694c2.3962.47923 4.3131 0 4.7924-1.43771.4792-.95847-.4793-1.91694-.9585-2.39617-.9585-.47924-1.917 0-3.3547.95847-1.4377 1.4377-2.8754 1.91694-4.7923.95847-1.917-.95847-2.8754-2.39618-1.917-3.83389 0-.95847.9585-1.4377 1.4378-1.91694 0-.47923 0-.47923-.4793-.95847v-.47923l3.8339 1.91694h-.4792c-2.3962-.47924-3.8339.47923-3.8339 1.4377z"/></g></g><g id="Cayman_Islands_svg__crest"><g id="Cayman_Islands_svg__rope" fill="#073163"><path fill="#fff" d="M863.203 232.47c-6.23006 1.43771-10.5432 1.91694-16.294-3.35465-3.83388-3.83388-2.87541-10.5432.95847-12.9394 4.31312-2.87541 8.147-4.79235 13.4186-3.35465 5.27159 1.43771 19.1694 14.3771 15.8148 14.8563-3.35465 0-8.62624 3.35464-13.8978 4.79235zM878.06 209.466c1.91694-1.4377 4.31312-2.39617 10.5432-2.87541 5.75082-.47923 10.0639-.47923 11.5016 3.83388 1.91694 5.27159 3.35465 11.5016 7.18853 14.3771-2.39617 1.4377-14.3771 2.87541-18.6902.47923-5.75083-2.87541-7.18854-13.8978-10.5432-15.8148zM919.274 209.946c1.91694-1.43771 4.31312-1.43771 10.5432-.95847 6.23005.47923 8.62623.95847 10.0639 5.27159 1.4377 4.79235 0 11.0224 2.87541 15.3355-2.87541.95847-12.4601.95847-15.8148-2.39618-5.27159-3.83388-4.79235-14.8563-7.66776-17.2525z"/><path d="M948.028 212.821c-4.31312-.95847-7.18853-1.4377-9.10547 0 2.39617 2.87541.47923 14.3771 5.27159 18.2109 3.35464 2.39618 11.9809 2.87542 13.8978-2.39617 2.39618-4.79236 2.39618-11.9809-10.0639-15.8148zM898.667 208.029c1.4377-1.43771 4.31312-1.91694 10.0639-1.91694 6.23006 0 10.0639.95847 11.9809 4.79235 1.91694 4.79235 1.43771 11.0224 4.79236 14.8563-1.43771 1.91694-14.3771 1.91694-18.211-.95847-5.27159-3.35465-5.75082-14.3771-8.62623-16.7732zM857.932 212.342c0-2.39618 3.35465-2.87542 11.9809-3.35465 8.62623-.95847 9.10547-.47924 11.9809 5.75082 1.43771 3.35465 3.35465 9.10547 7.18853 11.0224-10.5432 2.39617-13.8978 3.83388-19.6486.47923-4.31312-2.39618-9.10547-8.147-10.0639-10.5432-.47924-1.4377-.47924-2.87541-1.43771-3.35464z"/></g><g fill="#f9d050" stroke-width=".647"><g id="Cayman_Islands_svg__pineapple1"><path d="m880.935,163.46c-10.0639-7.66777-22.0448-14.8563-33.0672-16.294,7.18853,4.31312,27.3164,20.1279,32.588,25.3995"/><path d="M886.686 156.271c-11.9809-8.147-25.8787-17.2525-39.2973-18.2109 10.064 5.27159 24.9202 17.7317 33.0672 27.7956M902.021 142.853c6.7093-14.8563 13.8978-23.0033 23.4825-32.1088-4.79236 10.0639-10.064 30.6711-12.4601 38.8181"/><path d="m912.565,140.457c4.79236-10.5432,11.9809-19.6486,24.441-25.3995-6.23006,6.23006-15.8148,24.9202-18.211,34.9842"/><path d="M916.878 150.041c5.75082-8.147 17.2525-23.4825 37.8596-31.6295-11.9809 11.9809-29.7126 34.0257-34.0257 42.6519M923.587 160.584c8.62623-4.79236 25.8787-12.4601 38.3388-10.0639-7.66776 2.87541-30.6711 13.4186-40.735 23.0033"/><path d="M921.67 157.23c8.14701-8.62624 23.0033-21.5656 38.8181-26.8372-11.5016 11.0224-35.9426 35.9426-39.2973 39.7765M898.667 151.958c-5.75083-17.7317-14.3771-34.5049-27.3164-39.7765 7.18853 10.5432 16.294 25.8787 21.0864 48.882M887.644 151.479c-9.5847-11.5016-22.5241-23.0033-37.3804-25.3995 10.0639 5.75083 26.8372 22.5241 33.0672 38.8181"/><path d="m892.916,151c-11.9809-21.5656-21.0864-25.3995-26.3579-29.7126,4.31312,8.147,14.8563,29.7126,21.0864,38.8181"/><path fill="none" d="m868.954,149.562c5.75082,3.35464,14.3771,11.5016,17.2525,16.7732"/><path d="M868.954 159.626c2.87541 2.39617 8.147 5.27159 12.9394 9.5847M925.983 166.814c4.79236-3.83388 15.3355-10.0639 20.6071-11.9809M922.629 163.46c4.79236-6.23006 14.3771-14.8563 17.7317-17.7317M936.047 133.747c-4.31311 4.79235-14.3771 16.7732-18.2109 22.5241M923.587 129.434c-3.35465 4.31312-10.064 16.7732-11.9809 21.0864M885.727 130.393c2.87542 7.66777 8.147 20.6071 10.064 25.8787M881.414 138.54c1.91695 2.87541 5.75083 9.58471 7.18854 14.3771"/></g><g id="Cayman_Islands_svg__pineapple2"><path d="m897.708,136.143c0-4.31312,2.87541-9.10548,5.75082-9.10548,3.35465,0,5.75083,5.75083,5.75083,9.10548,0,3.83388-2.87542,7.18853-5.75083,7.18853s-5.75082-2.87542-5.75082-7.18853z"/><path d="M891.478 139.977c.47923-4.79236 3.83388-8.62624 6.70929-8.147 2.87541.47923 4.31312 6.23006 3.83388 9.5847-.47923 3.83389-3.83388 6.7093-6.23005 6.23006-2.39618 0-4.79236-3.35464-4.31312-7.66776zM904.418 141.415c-.95847-4.31311.95847-9.10547 3.83388-9.5847 2.87542-.47924 5.75083 4.31312 6.23006 8.147.95847 3.83388-1.4377 7.66776-3.83388 7.66776-2.39618.47924-5.75082-1.91694-6.23006-6.23006z"/><path d="m897.229,145.249c0-4.79236,2.87541-9.10547,5.75083-9.10547,3.35464,0,5.75082,5.27158,5.75082,9.10547,0,3.83388-2.87541,7.18853-5.75082,7.18853-2.87542,0-5.75083-2.87541-5.75083-7.18853z"/><path d="M888.603 147.645c0-4.31311 3.35464-9.10547 6.23005-9.10547 2.87542 0 5.75083 5.75083 5.75083 9.10547 0 3.83389-3.35465 7.18853-5.75083 7.18853-2.87541 0-6.23005-2.87541-6.23005-7.18853zM906.335 145.728c0-4.31312 2.87542-9.10547 5.75083-9.10547 3.35464 0 5.75082 5.75083 5.75082 9.10547 0 3.83389-2.87541 7.18853-5.75082 7.18853s-5.75083-2.87541-5.75083-7.18853z"/><path d="m904.418,149.562c0-4.79236,3.35465-9.10548,6.23006-9.10548s5.75083,5.27159,5.75083,9.10548c0,3.83388-2.87542,7.18853-5.75083,7.18853s-6.23006-2.87542-6.23006-7.18853z"/><path d="M896.75 153.875c0-4.79235 2.87541-9.10547 5.75082-9.10547 3.35465 0 5.75082 5.75083 5.75082 9.10547 0 3.83389-2.87541 7.18853-5.75082 7.18853s-5.75082-2.87541-5.75082-7.18853zM884.769 153.875c0-4.79235 2.39618-9.10547 4.79236-9.10547 2.39617 0 4.31311 5.75083 4.31311 9.10547 0 3.83389-2.39617 7.18853-4.31311 7.18853-2.39618 0-4.79236-2.87541-4.79236-7.18853zM911.606 152.917c0-4.31312 2.39618-8.62623 4.79236-8.62623 2.39617 0 4.79235 5.27159 4.79235 8.62623 0 4.31312-2.87541 7.18853-4.79235 7.18853-2.39618 0-4.79236-2.87541-4.79236-7.18853z"/><path d="m914.482,161.064c0.95847-4.79235,3.83389-8.62623,5.75083-8.147,1.91694,0.47924,2.39617,6.23006,1.4377,9.58471-0.47923,4.31312-3.35464,6.70929-5.27158,6.23006-1.91695-0.47924-2.87542-3.83388-1.91695-7.66777z"/><path d="M905.376 159.626c.47924-4.31312 3.35465-8.62624 5.75083-8.147 2.87541 0 4.31311 5.75082 3.83388 9.10547-.47924 4.31312-2.87541 7.18853-5.27159 6.70929-2.39618 0-4.79235-3.35464-4.31312-7.66776zM891.958 161.064c-1.4377-4.79235-4.31312-8.147-6.23006-7.66776-1.91694.47923-2.39617 6.23006-1.4377 9.58471.95847 3.83388 3.83388 6.23005 5.75082 5.75082 1.43771-.47924 2.87541-3.83388 1.91694-7.66777z"/><path d="m888.603,160.105c0-4.31312,2.39617-8.62623,4.79235-8.62623,2.87541,0,4.79235,5.27159,4.79235,8.62623,0,4.31312-2.39617,7.18853-4.79235,7.18853-1.91694,0-4.79235-2.87541-4.79235-7.18853z"/><path d="M895.791 162.022c0-4.79235 2.87541-9.10547 5.75082-9.10547 3.35465 0 5.75082 5.27159 5.75082 9.10547 0 3.83389-2.87541 7.18853-5.75082 7.18853s-5.75082-2.87541-5.75082-7.18853zM898.188 109.306c-.95847 3.83388-4.31312 7.18853-1.91694 12.4601-4.31312-1.43771-8.147-1.91695-11.5016 1.91694 4.31312-.47924 8.147.95847 10.0639 3.83388-3.83388-.47924-5.75082 1.43771-6.70929 3.83388 3.35465-.95847 6.70929-1.91694 8.147-1.4377-1.43771 1.4377-3.83388 3.83388-4.31312 5.75082 2.87541-2.39618 6.23006-1.91694 8.147-3.35465-1.4377 3.35465 1.43771 6.7093 3.83389 10.064-.47924-4.79236 2.39617-8.14701.95847-10.5432 4.31312.95847 4.79235 4.79235 11.0224 4.79235-2.39618-1.43771-3.83388-6.23006-6.70929-6.23006 1.4377-.47923 7.18853-.95847 8.147 0-.95847-1.91694-4.31312-3.83388-6.23006-3.83388 1.91694-1.91694 5.27159-5.75083 7.66776-6.7093-3.35465.47924-8.62623.95847-10.5432 3.83389 4.79236-3.83389 3.83389-11.0224 9.10548-11.9809-2.87542-.47923-7.18853 1.43771-10.5432 4.79236 1.4377-2.87542 1.4377-6.7093 3.35465-7.66777-3.83389.95847-8.14701 5.75082-9.58471 8.147 0-2.39618-1.43771-6.23006-2.39618-7.66776z"/><path d="M900.584 116.974c0 1.43771 0 4.31312-.47924 5.27159M906.814 116.495c-.95847.95847-2.87541 4.31311-2.87541 7.18853"/><path fill="none" d="m909.689,122.246c-1.43771,0.95847-2.87541,2.39618-3.35465,4.31312"/></g></g><g id="Cayman_Islands_svg__turtle" fill="#059334"><path d="m858.89,169.69c-3.35464,0-6.23006-1.43771-8.147-3.83388-3.35465-4.31312-12.4601-6.23006-16.294-2.39618-1.43771,0.95847-3.35465,0.95847-4.79235,1.43771-2.39618,0-5.27159,2.39617-4.31312,7.18853,1.91694-1.43771,2.39618,0,3.83388,0,0.95847-0.47924,0.47924,0.47923,0.47924,1.4377,0,2.39618,5.27159,7.18853,10.0639,6.7093,5.27159,0,7.66776,1.91694,8.62624,2.87541,1.4377,1.43771,0.47923,0.95847,1.4377,3.35465,1.43771,1.4377,1.91694,1.91694-0.47923,3.83388-3.35465,2.87541-5.75083,9.58471,0,14.8563,6.23006,4.79235,22.0448,11.9809,39.7765-1.91695,17.2525-13.4186,44.0896-5.75082,46.0066-0.95847,2.39618,4.79236,3.35465,7.66777,3.83389,10.064,0.47923,1.91694,2.87541,3.83388,6.23006,3.35464,3.35464,0,7.18853,1.43771,9.10547,2.87542,2.39617,1.4377,5.75082,0.95847,4.79235-3.35465-1.91694-13.4186-10.0639-15.3355-11.0224-21.5656,4.79235,0.47923,8.147,0.47923,10.0639-1.43771,1.43771-1.91694,3.35465-5.27159,5.27159-6.23006,1.43771-0.95847,1.43771-1.91694-0.47924-1.4377-2.39617,0.47923-3.83388,1.4377-8.147,0.95847-22.0448-2.39618-83.8662-19.1694-95.8471-15.8148z"/><path fill="#000" d="m956.654,185.984c-2.39617,1.43771-4.79235,3.83388-9.10547,9.58471-4.79235,6.23006-19.1694,12.4601-36.9011,12.4601-17.2525,0-27.7956-2.87541-35.4634-9.10547-4.31312-3.35465-7.66777-5.27159-10.5432-6.7093-5.27159-2.39618-6.23006-7.66776-4.79236-11.9809-1.4377,2.39617-2.39617,4.79235-5.27158,4.31312-1.91695,0-5.75083,0-4.79236,1.91694-0.47923-0.95847-0.47923-2.39618-0.95847-2.87541-0.47923-0.47924-0.95847-0.95848-0.95847-0.95848,1.43771,0.95848,4.79235-1.91694,7.18853-1.91694,1.91694,0.47924,4.31312-1.91694,3.83388-4.79235-0.47923-2.39618-0.95847-4.31312-1.4377-6.23006,3.83388-1.91694,54.1536,7.18853,64.2175,8.147,10.064,0.47924,38.8181,4.79235,34.9842,8.147z"/><path d="m865.6,167.773c4.79235-4.79235,10.5432-7.18853,16.294-5.75083h1.43771c2.87541-2.39617,9.5847-2.87541,13.4186-0.95847h1.91694c5.75082-1.91694,16.7732,0,20.6071,3.83389l1.4377,0.95847c12.9394-0.95847,20.6071,4.79235,29.7126,13.8978,0.95847,0.95847,2.39617,2.87541,4.79235,3.35465,2.87541,0.47924,3.35465,1.91694,0.95847,3.35465-2.87541,1.4377-5.27159,3.83388-10.0639,9.10547-4.31312,5.75082-18.211,11.5016-35.4634,11.5016-16.7732,0-26.8372-2.87541-34.5049-8.62624-4.31312-3.35465-7.66777-5.27159-10.064-6.70929-2.87541-0.95847-6.70929-4.79236-5.27159-8.62624,0.95848-3.83388-1.4377-8.62624-3.35464-13.4186,1.4377-0.95847,5.27159-2.39618,7.18853-1.43771l0.95847-0.47923z"/><g fill="#00493d"><path d="M950.424 179.754c-9.10548-9.10547-16.7732-14.8563-29.7126-13.8978 0 .47923 0 1.91694-.47923 2.87541 7.66776 2.87541 18.6902 11.5016 23.4825 17.7317 1.91694-1.91694 5.27159-4.31312 6.7093-6.7093zM919.274 164.898c-3.83389-3.83389-14.8563-5.75083-20.6071-3.83389 0 1.91695 0 4.79236-.95847 6.7093 3.35464 1.4377 6.23006 4.79235 9.10547 8.147 1.91694-.47924 6.70929-1.91694 9.10547-2.39618.95847-1.91694 2.87541-6.23006 3.35465-8.62623zM896.75 161.064c-3.83389-1.91694-10.5432-1.4377-13.4186.95847-.95847 1.91695-1.43771 5.75083-1.43771 7.66777 1.91694 0 4.79235 1.43771 5.75082 2.39618 2.87542-.95847 6.7093-2.87542 8.14701-4.31312.47923-1.91694 1.4377-4.79235.95847-6.7093zM865.6 167.773c4.79235-4.79235 10.5432-7.18853 16.294-5.75083-.95847 1.43771-1.43771 4.31312-1.43771 7.18853-5.27158-.47923-11.9809.95848-14.8563 2.87542v-4.31312z"/><path d="M941.798 187.422c-4.31312-6.23006-14.8563-13.4186-22.0448-16.7732 0 .47924-.95847 2.39618-1.4377 3.83388 2.87541 4.31312 8.62623 13.8978 11.0224 19.1694 2.39618-.95847 9.10547-3.83389 12.4601-6.23006zM905.376 197.965c.95847-6.7093 1.43771-16.294 1.43771-19.6486 2.39618-.47924 7.18853-1.91694 9.10547-2.39618 2.39618 3.83388 8.147 13.8978 10.5432 18.6902-5.75083 1.4377-15.3355 3.83388-21.0864 3.35465zM888.603 174.961c2.39617-.95847 5.75082-2.87541 8.147-4.79235 1.91694 1.4377 5.75082 4.79235 7.18853 6.70929 0 4.31312-1.43771 16.7732-1.91695 21.0864-3.83388 0-10.0639-.95847-13.4186-2.87542.47923-7.18853.95847-15.3355 0-20.1279zM864.641 180.712c.47923-.95847.95847-4.31311.95847-5.75082 3.83388-2.39618 13.4186-4.79235 20.6071-.95847.47923 4.79235 0 16.7732-.47924 19.6486-6.23006-4.79236-16.294-11.5016-21.0864-12.9394z"/></g><g fill="none"><path fill="#000" stroke="none" d="m840.679,172.086c-0.95847,0-1.43771-2.87542-3.35465-2.87542-0.47923,0-1.91694,0.47924-2.39617,0,0,0.95848,0.47923,1.91695,0.95847,2.39618,0.47923,1.43771,2.87541,0.47924,4.79235,0.47924z"/><path d="M840.679 180.233c5.75082 0 6.70929-7.18853 9.58471-7.66777M844.034 180.712c4.31312 1.91694 7.66776-8.147 11.0224-7.66776M835.408 168.252c1.43771 0 2.39618-1.91694 4.79235.47924.95848.95847 2.39618 1.43771 3.35465 1.43771M842.596 175.441c-1.91694 2.87542-5.27159 4.79236-7.18853 3.83389M834.449 163.46c-1.43771.95847-2.39618 2.87541-3.35465 4.31312M829.657 170.648v2.39618"/></g></g></g><g stroke="none"><path id="Cayman_Islands_svg__shield" fill="#fff" d="m989.722,232.949v93.4509c0,80.9908-38.3388,108.786-89.617,130.831-51.2781-22.0448-90.0962-49.8405-90.0962-130.831v-93.4509h179.713z"/><path fill="#c8102e" d="m900.105,312.023c4.31315,0,11.0224-3.83388,16.7732-9.5847,6.23004-6.70929,16.7732-9.10547,27.7958,0,11.0224,9.10548,17.7317,5.27159,23.4825,0,5.75082-5.27158,10.5432-7.18853,21.5656-7.18853v-62.3006h-179.713v62.3006c11.0224,0,15.8148,1.91695,21.5656,7.18853,5.75082,5.27159,12.4602,9.10548,23.4826,0,11.5016-9.10547,21.5656-6.70929,28.2748,0,5.27159,5.75082,11.9808,9.5847,16.7732,9.5847z"/><path d="M900.105 359.946c5.75083 0 17.2525-6.23006 20.1279-7.66776 10.5432-6.23006 18.2109-.47924 24.441 2.39618 6.7093 2.87541 19.1694 6.23005 26.8372 0 7.66777-6.23006 11.9809-5.75083 17.2525-5.75083.95847-7.18853.95847-14.3771.95847-22.5241v-5.75082c-6.70929-1.43771-10.0639.47923-17.2525 6.70929-7.18853 6.23006-15.3355 4.79235-25.8787.95847-10.0639-4.31312-20.1279-11.9809-30.1918 0-2.87542 3.35465-9.58471 8.147-16.294 8.147-7.18853 0-13.4186-4.79235-16.294-8.147-10.5432-11.9809-20.1279-4.31312-30.1918 0-10.5432 3.83388-19.1694 5.27159-26.3579-.95847-6.70929-6.23006-10.0639-8.147-17.2525-6.70929v5.75082c0 8.147.47923 15.3355 1.4377 22.5241 5.27159 0 9.10548-.47923 16.7732 5.75083 7.66777 6.23005 20.6071 2.87541 26.8372 0 6.7093-2.87542 14.3771-8.62624 24.9202-2.39618 2.87541 1.4377 13.8978 7.66776 20.1279 7.66776zM900.105 380.553c7.18853 0 15.8148-2.87541 23.4825-7.18853 9.5847-5.27158 16.294-2.87541 25.8787 1.91695 10.064 4.79235 18.211 3.35464 23.9618 0 2.87541-1.91695 5.27159-5.75083 11.5016-4.31312-2.87541 11.9809-7.18853 22.5241-12.4601 31.1503-9.58471 2.39618-14.8563 2.39618-24.9202-1.91694-10.0639-4.79235-22.5241-7.66776-29.2334-3.35464-6.23006 3.83388-12.9394 5.75082-18.211 5.75082-5.27159 0-11.9809-1.91694-18.2109-5.75082-6.70929-4.31312-19.1694-1.43771-29.2334 3.35464-10.0639 4.31312-15.3355 4.31312-24.9202 1.91694-5.27159-8.62623-9.58471-19.1694-12.4601-31.1503 6.23006-1.43771 8.62623 2.39617 11.5016 4.31312 5.27159 3.35464 13.8978 4.79235 23.4825 0 10.0639-4.79236 16.7732-7.18853 26.3579-1.91695 7.66777 4.31312 16.294 7.18853 23.4825 7.18853zM900.105 457.231c19.1694-8.147 36.9011-17.2525 51.2782-29.7126-3.83389-1.43771-6.23006-.47924-9.58471-2.87541-3.35465-2.39618-13.4186-3.35465-22.0448 1.4377-9.10547 4.31312-12.9394 5.27159-19.6486 5.27159-6.70929 0-10.5432-.95847-19.6486-5.27159-8.62623-4.79235-18.6902-3.83388-22.0448-1.4377-3.35465 2.39617-5.75083 1.4377-9.58471 2.87541 14.3771 12.4601 31.6295 21.5656 51.2782 29.7126z" fill="#0b50a0"/><g id="Cayman_Islands_svg__lion" stroke="#000" stroke-width="1.438"><path fill="#f9d050" d="m887.644,256.432c0.47924,0.95847-0.47923,3.35465,0,4.31312,0.95848,1.91694,0.95848,2.87541,2.39618,3.83388h3.35465c10.5432,0,23.0033-4.31312,33.5465-4.31312,10.064,0,16.294,3.35465,22.0448,3.35465,3.35465,0,6.23006-2.39618,6.23006-4.79235,0-2.39618-3.83388-3.83389-11.9809-3.83389-11.5016,0-17.7317,2.87541-27.3164,2.87541-14.3771,0-16.7732-5.27158-16.7732-7.66776s2.39618-5.75083,10.064-5.75083c2.39617,0,4.31311-0.47923,5.27158-1.4377,0.47924-0.95847,1.91695-2.87541,4.79236-4.31312,3.35464-1.91694,10.0639,0,13.4186-2.39618,0,1.91695-2.87541,4.79236-5.27159,5.75083,4.79235-1.43771,10.0639-1.43771,11.0224,2.39617-2.39618-1.4377-6.23006-0.47923-7.66776,0-1.91695,0.47924-2.87542,0.95848-4.79236,1.43771,1.91694-0.47923,2.87541,3.35465,5.75083,3.35465-2.87542,2.39617-7.66777,2.39617-12.4601,0.47923-1.43771-0.47923-5.27159-1.91694-7.66777-1.91694-4.79235,0-7.66776,0.95847-7.66776,2.87541,0,2.39618,2.87541,3.83389,11.5016,3.83389,8.62624,0,13.4186-2.39618,26.358-2.39618-0.95847-1.43771,0.47923-2.87541-1.43771-4.31312,4.79236,0,10.064,1.43771,11.9809,4.79236-0.47924-3.35465,2.39617-6.23006,1.4377-9.10548,2.87541,0.47924,5.27159,3.35465,5.75083,5.75083,0-1.43771,1.91694-1.43771,1.91694-2.87541,2.87541,1.4377,4.31312,4.79235,3.83388,7.66776,1.43771-2.39618,2.87541-1.4377,3.83388-4.31312,0.95847,1.91694,0.47924,7.66777-2.87541,9.58471,2.87541-1.91694,7.18853-1.91694,10.0639,1.43771-2.87541-0.47924-4.31311,0.95847-5.75082,1.4377-5.75082,3.35465-15.3355,5.27159-22.5241,4.79236-7.66777-0.47924-8.62624-1.91695-13.4186-1.91695,2.87541,0.47924,8.62623,6.23006,13.8978,6.23006,3.35465,0,5.75083,0,7.18853-0.47923,1.43771-0.47924,3.83389,0,5.75083,0.95847,1.4377,1.43771,4.31312,2.87541,6.23006,2.39618-0.47924,1.91694-1.43771,2.87541-2.87541,3.35464,2.39617,1.43771,0.95847,2.39618,3.35464,4.31312-0.95847,0-1.91694,0.95847-3.35464,0.47924,1.4377,1.4377,1.4377,3.35464,2.87541,4.31312-0.47924,0-1.91694,0.47923-2.87541,0,1.4377,1.91694,0,4.31311,1.4377,5.27158,1.43771,1.91695-1.4377,4.31312-3.83388,2.39618,0.47923,1.43771-0.95847,2.87541-2.39618,2.39618-1.4377-0.47924-2.39617-1.91694-1.91694-2.39618,0-0.47923,0-0.47923,0.47924-0.95847-0.95847,1.43771-2.87542,1.43771-3.83389,0.95847-0.47923-0.47923-0.95847-0.95847-0.95847-1.4377-3.35464,0.95847-4.79235-1.91695-4.31312-3.35465,0.47924-1.43771,3.35465-1.91694,4.31312-1.43771,0.95847,0.47924,1.91694,0.95847,2.87541,0,0.95848-0.47923,1.43771-1.4377,1.43771-2.39618,0-1.4377-1.43771-5.75082-7.66776-5.27158-7.18854,0.47923-18.6902-1.43771-24.441-3.35465-0.47923-0.47924-0.95847-0.47924-1.4377-0.95847,0,1.91694-1.91695,2.87541-1.91695,4.79235,0,2.39618,0.95848,4.31312,3.83389,5.27159-1.43771,2.39618-3.83389,1.91694-4.79236,0.47924,0,1.4377-1.91694,2.39617-1.91694,4.31311-0.47923-0.95847-0.95847-1.4377-1.4377-2.39617-1.43771,3.35464-5.27159,5.27159-7.18853,4.31312-2.39618,1.91694-5.27159,1.4377-6.23006-0.47924-1.43771,0.95847-3.35465,0.95847-4.31312,0,0,1.43771-0.95847,0.95847-1.43771,2.87541,0,0.95847-1.91694,1.43771-2.87541,0.95847-0.95847-0.47923-1.43771-2.39617-0.47923-3.35464-1.43771,0.95847-2.87542,0.95847-3.83389,0,0-0.95848,0-2.39618,0.95847-2.87542h0.95847c-0.95847-0.47923-2.39617,0-3.35464-0.47923-0.95847-0.95847-0.95847-1.91694-0.47924-2.87541,0.47924-0.47924,1.91694-1.43771,2.87541-0.47924l0.47924,0.47924c0-0.95848,0.47923-1.91695,0.95847-1.91695,0.95847-0.47923,2.39618-0.47923,3.83388,0.95847,0.95847,1.43771,1.91694,1.43771,4.79236,0.95848,2.39617,0,6.23006-2.39618,9.10547-4.79236-8.147-1.4377-3.35465-6.70929-0.95847-8.62623-1.91694-0.47924-4.79236-0.47924-6.7093,0.47923-10.0639,5.27159-20.6071,11.5016-27.3164,9.58471,0,0.95847,0.47923,1.91694,0.95847,2.87541-1.43771,0-4.31312,0-5.27159-1.43771-0.47924,0.95847-1.43771,3.35465-0.47924,5.27159-0.95847-0.95847-3.83388-1.91694-5.27159-2.39617,0.95847,0.95847,0,2.87541,0.47924,4.31311-1.43771-1.4377-3.83388-2.39617-4.79235-1.4377s-2.87542,1.4377-4.31312,0.95847c-0.95847,1.43771-2.39618,2.39618-3.83388,2.87541,0-0.95847,0-2.39618-0.47924-2.87541-0.47924,1.43771-1.91694,3.35465-3.83388,4.31312,0-0.95847,0-2.39618-0.47924-3.35465,0,1.91694-3.83388,2.87541-4.31312,4.31312,0.47924-1.43771,0.47924-2.87541,0.47924-3.83388-0.95847,1.4377-2.39618,2.87541-4.79235,3.35464,0.47923-0.95847,0.95847-1.91694,0.47923-2.87541-0.47923,1.91694-3.35465,2.87541-5.75082,2.39618,0,0.95847-1.91694,2.39617-4.31312,0.95847-1.43771-0.47924-2.39618-1.91694-1.43771-2.87541-1.91694,0-3.83388-1.91695-2.87541-3.35465,0-0.47924,0.47924-0.95847,0.47924-1.43771-1.43771-0.95847-1.91695-2.87541-0.47924-4.31312,0.47924-0.47923,1.91694-0.47923,2.87541-0.47923,0-3.83388,3.35465-3.83388,4.79236-0.95847,0.95847,1.4377,3.83388,3.83388,6.23006,3.35465,0.95847,0,1.4377-0.47924,2.39617-0.47924,2.87541-0.95847,8.62624-3.35465,11.9809-6.23006,0.47923-1.43771,0.47923-2.39618,0.47923-3.35465-1.91694,0.95847-3.83388,1.91694-4.79235,3.35465v-1.43771c-1.43771,0-3.83389-0.47923-4.79236-0.47923,0.47924-0.47924,0.95847-2.87541,1.91695-3.35465-2.39618,0.47924-4.79236,0-6.7093-0.47923,0.95847-0.95847,0.95847-2.39618,1.43771-3.83389-0.95847,0.47924-3.35465-0.47923-5.27159,0,0.47923-1.4377,0.95847-3.35464,2.39617-3.83388-1.91694,0.47924-4.31311,0-6.70929-0.95847,1.91694,0,2.87541-2.39618,4.31312-2.39618-3.83388,0-4.79236-1.91694-6.7093-2.87541,1.43771,0.47924,2.39618-0.95847,3.83389-0.95847-1.43771-0.47923-3.83389-2.87541-2.87542-4.31312-0.47923,0.47924-0.95847,1.43771-1.91694,1.91694-0.95847,0.47924-2.87541,0-4.31312-1.4377-0.95847-1.91694-0.47923-4.31312,1.43771-4.79236-2.39618-0.47923-2.39618-2.87541-1.43771-3.83388,0.47924-0.95847,2.39618-2.39618,3.35465-0.95847,0.47924,0.47924,0.95847,1.43771,1.43771,1.91694-0.47924-0.95847-0.47924-2.87541-0.47924-4.31312,0.47924-1.4377,1.43771-1.4377,2.87541-1.91694,1.43771,0,2.39618,1.43771,2.39618,2.87541,0,1.43771,0.47924,2.39618,0.95847,4.31312,0-0.47923,0.47924-1.4377,0.47924-1.91694,0-1.91694,2.39617-1.4377,3.83388-0.95847,1.43771,0.47924,1.91694,3.35465,0,4.79235-0.95847,0.95847-0.47924,2.39618,0.47924,3.35465,3.35464,5.27159,9.10547,9.58471,13.8978,10.0639,0-1.91694,0.95847-3.83388,2.39618-5.27158,0-0.95848,0.47923-2.39618,0.95847-3.35465,0.47923-2.87541,1.91694-4.31312,3.83388-3.35465-0.47923-0.47924-0.95847-0.95847-0.95847-1.43771-1.43771-1.4377-2.87541-3.83388-1.91694-5.75082s3.83388-1.43771,4.79235-0.47924c-0.47923-2.87541,2.87541-5.27158,2.87541-6.70929,0.47924,1.43771,1.43771,3.35465,0.95847,4.79235,0.47924-1.91694,3.83389-4.31311,6.23006-5.27159-0.95847,1.43771,1.91695,3.83389,1.43771,5.27159,0.95847-2.39617,4.79235-3.83388,7.66777-3.83388-0.95847,0.95847-0.95847,2.87541-0.95847,3.83388,1.4377,0,3.83388-0.47923,4.79235-1.91694,0,1.91694-0.95847,3.83388-1.91694,4.79236,0.47923-0.47924,2.39617-0.47924,3.83388-0.47924-1.43771,1.43771-0.95847,2.87541-2.39618,3.83388,1.91695-0.95847,4.31312-0.95847,4.79236,0.95847,0.95847,1.43771-0.47924,3.83389-1.43771,5.27159-0.95847,0.47924-1.91694,1.43771-2.39618,1.43771z"/><g fill="none"><path d="m857.932,262.182c-3.35464,1.43771-4.31312,4.79236-4.79235,6.7093"/><path d="M857.453 265.537c-4.79236 2.87541-6.7093 5.27159-5.75083 10.5432M859.849 279.914c2.87542-.95847 4.79236-1.91694 7.18853-6.23006"/><path d="m865.6,275.601c-0.95847,1.91694,0,5.27159-1.43771,6.7093,2.39618-1.43771,4.31312-3.35465,4.79236-6.7093"/><path d="M866.558 280.872c1.91694-.95847 4.79235-3.83388 6.23006-7.18853-.47924 1.43771 0 3.83388-.95847 5.27159 2.39617-2.39618 3.35465-3.83388 3.83388-6.23006 0 .47924.47924 1.43771.47924 1.91694.95847-.95847 1.91694-1.91694 1.91694-3.83388M878.06 272.246v2.39617c1.91694-1.4377 2.39617-3.35465 2.39617-5.75082"/><path d="M879.977 271.767c2.87541-1.91694 3.35465-4.79235 3.35465-9.10547M883.331 267.454c1.91694-1.4377 2.39617-2.39618 2.39617-6.70929M879.497 247.805c-.95847 0-1.91694.47924-1.91694 1.91694 0 .95847-1.4377 2.39618-1.4377 3.83389-.47924 1.91694-1.43771 2.39617-2.87542 1.91694-1.4377-.95847-1.4377-.95847-1.4377-2.39618 0-1.91694 2.39617-2.39618 2.39617-4.31312.47924-.95847.95848-2.39617 1.43771-2.39617-2.39618 1.4377-5.75082.47923-6.23006-2.39618"/><path d="m883.811,249.243c-0.95847,0.47923-1.91694-0.95847-3.35465-0.47924-0.47923,0-1.91694,0.47924-2.39617,0"/><path d="M877.101 251.639c.47923.47924 2.87541 1.43771 5.27159.47924-1.91695.47924-3.35465-1.91694-1.43771-3.35465M872.788 246.847c-1.91694 0-3.35465 1.43771-2.87541 2.87541.47923 1.43771 2.39617 1.43771 3.83388.47924M869.433 270.809c.47924-.47924.95847-1.43771.95847-1.91694.95847 0 1.91694-.47924 2.39618-.95847 1.91694 0 3.35465-1.43771 3.83388-2.87542.95847 0 1.43771-2.39617 1.91694-3.35464.47924.47923 1.43771 0 1.91694-1.91694.95847.47923 2.39618 0 2.87542-1.43771M863.683 254.994c0 .47924-.95847 1.43771-1.91694 1.91694.47923.95847 0 3.35465-.95848 3.83389.47924.95847 0 2.39617-.47923 3.35464 0 .47924.47923 1.91695.47923 2.39618M865.6 245.409c-.95847 2.39617-.47924 5.27158 1.4377 5.75082"/><path d="M866.558 253.077c-.47924 2.39618-.47924 5.75083-.95847 7.18853-.47924.95847-1.43771 4.31312 2.39617 5.27159 4.31312.95847 6.7093.47924 9.10548-6.70929M884.29 277.518c0 .47924-.47924 1.43771-1.43771 1.43771M887.644 276.559c0 .95847-.95847 2.39618-1.4377 2.87542M890.999 275.601c0 .95847 0 2.39618-.95847 2.87541M861.766 245.888c.47923 0 .95847.95847 1.4377 1.91694-1.4377-.95847-2.87541 1.43771-1.91694 2.87541M860.328 254.035c-.47924.47924-1.43771.95847-1.91694 1.43771M858.89 258.348c-.47923 0-.95847.47924-1.4377.47924M835.887 249.722c0-.47923 0-.47923.47923-.95847M831.574 248.284c-.47924 0-.47924 0-.95847-.47924M832.053 254.994h.95847M830.136 252.118c-.95847-.95847-2.39617-1.43771-2.87541-1.43771M856.494 269.85c-3.35465 2.87541-4.79236 5.27159-5.27159 8.62623M859.849 272.246c-.95847 1.91694-2.39617 3.35464-3.83388 4.31311M841.159 286.623c-3.83389.95847-6.7093.47923-9.58471-1.43771-.47924-.47924-.95847-.47924-1.43771-.95847M855.536 279.914c-.47924 1.91694-.95847 4.31312-1.91695 4.79235 3.83389-1.91694 7.18853-4.79235 7.66777-9.10547M827.74 289.02c1.4377-.47923 2.87541.47924 3.83388-.47923M911.127 273.205c.95847.47923 2.39617.95847 2.87541 1.4377.47923-.95847 2.39618-2.39617 3.83388-2.87541M877.101 283.269c-.47924-1.91694.47923-4.31312 3.35464-5.27159M858.411 291.416c.47923-.95847.47923-2.39618.95847-3.35465M837.325 292.853c-.47923.95847-1.4377 1.91694-1.4377 2.87541M830.136 293.812s0-.47924.47924-.47924c.95847-.47923 2.39617-1.43771 2.87541-2.39618M895.312 287.103c-.95847.47924-1.43771 0-1.91694-.47923M894.833 289.499s-.47923.47923-.95847.47923M897.229 291.895c-.47923.47924-.95847.95848-1.4377.95848M911.127 292.853c.95847-.47924 1.4377-1.43771 1.91694-3.35465M904.897 292.374c1.4377-.47924 2.39617-1.43771 3.83388-2.87541M918.315 288.54c0-.95847 0-1.91694.47923-2.87542M953.779 292.853c-.95847-.95848-.95847-2.39618.47924-3.35465.95847-.47924 1.4377-.95847 2.39617-1.43771"/><path d="M924.546 276.08c-7.66777-3.35465-7.18853-7.66777-13.4186-7.18853M958.571 290.936c.47923.47924 0 1.91695 0 2.39618M962.884 290.936c-.47923 1.43771-.47923 1.91695-.47923 3.35465M925.983 245.888h-3.83388M885.727 262.182c0 .95847 1.43771 2.87541 5.27159 2.87541-.47923 0-.95847-.47923-.95847-.47923M887.644 256.432c-.47923.47923-.95847 0-.95847 0-.95847-.95847.47924-2.87541 1.91695-3.83388-1.43771.47923-2.39618.47923-3.35465.47923-.95847 2.87541-3.83389 4.31312-5.75083 2.39618-.47923 1.91694-2.87541 4.31312-4.79235 3.83388-1.91694-.95847-2.39618-2.39618-1.91694-3.83388-2.39618 2.87541-5.27159.95847-6.23006 0-.47924-.95847 0-3.35465.95847-6.23006"/></g><path stroke="none" d="m918.315,274.642c-1.43771,0.95847-2.87542,0-4.31312,1.43771-0.95847,0.95847,0.47923,1.4377,1.4377,1.4377-0.47923,1.43771-0.47923,1.91695,1.91695,1.91695-0.95847,1.4377,1.91694,1.91694,1.4377,3.83388,1.43771-1.43771,1.43771-3.35465,0.95847-4.79236-0.47923-1.4377-2.87541-2.39617-1.4377-3.83388z"/><path d="M874.705 259.307c-1.91694-.95847-2.39618-2.39618-1.91694-3.83388-.47924.95847-1.43771 1.4377-2.39618 1.4377-1.91694 4.31312-4.31312 8.147-7.18853 8.147-3.35465.47924-2.87541 3.83389-.47923 3.83389 5.27158.95847 7.66776-.95847 11.9809-9.58471zM827.261 247.805c1.43771-1.4377.47924-2.87541-.47924-3.35465-1.4377-.47923-4.31311 0-5.75082 2.39618 1.43771-.47923 2.87541-.47923 3.35465.47924.47923.95847 1.4377 1.91694 2.87541.47923zM829.657 239.179c3.35464 0 4.31312.47923 4.79235 1.91694.47924.95847-.47923 2.39617-1.43771 2.39617-1.4377 0-2.87541-.95847-2.39617-1.4377.47923-.95847.47923-2.39618-.95847-2.87541zM839.242 246.847c2.39618.47924 3.35465-.95847 1.91695-2.87541-.47924-1.43771-1.91695-2.39618-4.31312-1.91694 2.39617 1.4377 0 3.83388 2.39617 4.79235zM821.51 254.994c1.4377 2.39618 3.83388 2.39618 4.79235 1.91694 1.43771-.47923 1.91694-1.91694 1.43771-2.87541-.95848-1.4377-2.39618-1.91694-2.87542 0-.95847 1.91694-2.39617 1.43771-3.35464.95847zM828.698 284.227c-.95847-1.91694-3.83389-1.91694-6.23006 0 .95847-.47924 2.87541 0 3.35464.95847.47924.95847 1.43771.95847 1.91695.95847.47923-.47924 1.4377-.95847.95847-1.91694zM832.532 281.352c0-2.39618-3.35465-2.87542-5.27159-1.91694.95847 0 2.39618.95847 2.39618 1.91694.47923.95847 1.4377 1.4377 1.91694 1.4377.95847-.47923 1.4377-.95847.95847-1.4377zM827.74 289.978c-2.87542-.47923-4.31312 2.87542-4.31312 5.27159.47923-1.4377 1.91694-2.39617 3.35464-1.91694 1.43771 0 1.91695-.47923 1.91695-1.43771.47923-.95847 0-1.4377-.95847-1.91694zM828.219 298.125c.95847.47924 1.91694-.47923 2.39618-1.91694 0-.95847 1.91694-.95847 2.39617-.47923.95848.47923.95848 2.39617-.47923 3.35464-.95847.47924-3.35465.95848-4.31312-.95847zM894.833 283.748c-.95847-.47923-3.35464-1.4377-5.27158 0 1.4377-.47923 2.39617.47924 2.87541 1.43771 0 .95847 1.4377 1.43771 1.91694.47923.47923-.47923.95847-1.4377.47923-1.91694zM890.52 287.103c-1.91694-.95847-4.31312 1.43771-4.79236 3.35465.47924-.47924 2.39618-1.43771 3.35465-1.43771.95847.47924 1.91694 0 1.91694-.95847.47924-.47923.47924-.95847-.47923-.95847zM892.916 290.936c-1.4377 0-3.35464 1.91695-3.35464 3.83389.47923-.95847 1.4377-1.43771 2.39617-.95847.95847 0 2.39618-.47924 2.39618-1.43771s-.47924-1.43771-1.43771-1.43771zM897.229 294.77c-.95847-.47924-2.39618 0-2.39618 1.4377 0 1.43771 0 2.87541-.47923 3.35465.95847-.95847 1.91694-1.43771 2.87541-1.91694.47924-.47924.95847-1.91694 0-2.87541zM951.383 290.457c-.95847-.95847-2.39618-.47924-2.87542.47923-.47923.95847-.95847 3.35465 0 5.27159 0-.95847.95847-2.39617 1.91695-2.39617 1.4377-.47924 1.91694-2.39618.95847-3.35465zM954.258 292.374c-1.91694.95847-1.91694 4.31312-.47924 6.23006 0-.95847.47924-2.39618 1.43771-2.87541 1.4377 0 1.91694-1.91694 1.4377-2.87541-.95847-.95848-1.91694-.47924-2.39617-.47924zM960.009 294.291c-.95847-.47923-1.91694.47924-1.91694 1.43771-.47923 1.4377.47924 3.35464 1.91694 4.31312 0-.95848.47924-1.91695.95847-2.39618 1.43771-.95847.95847-2.87541-.95847-3.35465zM964.322 293.812c-.95847 0-1.91694 1.4377-.95847 2.87541.47923.95847 1.43771 1.4377 3.35465.95847-.47924 0-1.43771-1.43771-.95847-1.91694.47923-.95847 0-1.91694-1.43771-1.91694z" fill="#073163" stroke="none"/></g><g id="Cayman_Islands_svg__star"><path fill="#f9d050" d="m831.095,383.429,23.9618-73.8022,23.9618,73.8022-62.7798-45.5274,77.6361,0z"/><path fill="#024919" d="m835.887,376.72,49.8405-36.4219-61.3421,0,49.3612,36.4219-18.6902-58.4667z"/></g><use xlink:href="#Cayman_Islands_svg__star" x="90.097"/><use xlink:href="#Cayman_Islands_svg__star" x="45.048" y="52.237"/><path fill="none" stroke="#000" d="m989.722,232.949v93.4509c0,80.9908-38.3388,108.786-89.617,130.831-51.2781-22.0448-90.0962-49.8405-90.0962-130.831v-93.4509h179.713z"/></g></g></svg>