<svg xmlns="http://www.w3.org/2000/svg" xmlns:xlink="http://www.w3.org/1999/xlink" viewBox="0 0 300 200"><defs><g id="Georgia_svg__smallcross"><clipPath id="Georgia_svg__vclip"><path d="M-109,104 a104,104 0 0,0 0,-208 H109 a104,104 0 0,0 0,208 z"/></clipPath><path id="Georgia_svg__varm" d="M-55,74 a55,55 0 0,1 110,0 V-74 a55,55 0 0,1 -110,0 z" clip-path="url(#Georgia_svg__vclip)"/><use xlink:href="#Georgia_svg__varm" transform="rotate(90)"/></g></defs><path fill="#fff" d="M0 0H300V200H0z"/><path d="m 130,0 0,80 -130,0 L 0,120 l 130,0 0,80 40,0 0,-80 130,0 0,-40 -130,0 L 170,0 130,0 z" fill="red"/><use xlink:href="#Georgia_svg__smallcross" transform="translate(64.45,39.45)" fill="red"/><use xlink:href="#Georgia_svg__smallcross" transform="translate(235.55,160.55)" fill="red"/><use xlink:href="#Georgia_svg__smallcross" transform="translate(235.55,39.45)" fill="red"/><use xlink:href="#Georgia_svg__smallcross" transform="translate(64.45,160.55)" fill="red"/></svg>