<svg xmlns="http://www.w3.org/2000/svg" xmlns:xlink="http://www.w3.org/1999/xlink" viewBox="0 0 630 360"><path fill="#da0000" d="M0 0H630V360H0z"/><path fill="#fff" d="M0 0H630V240H0z"/><path fill="#239f40" d="M0 0H630V120H0z"/><g transform="translate(8.4,100.4)"><g id="Iran_svg__tb4"><g id="Iran_svg__tb1" fill="none" stroke="#fff" stroke-width="2"><path id="Iran_svg__tbp1" d="M0,1H26M1,10V5H9V9H17V5H12M4,9H6M26,9H21V5H29M29,0V9H37V0M33,0V9" transform="scale(1.4)"/><path id="Iran_svg__tbp2" d="M0,7H9M10,7H19" transform="scale(2.8)"/><use xlink:href="#Iran_svg__tbp2" y="120"/><use xlink:href="#Iran_svg__tbp1" y="145.2"/></g><g id="Iran_svg__tb3"><use xlink:href="#Iran_svg__tb1" x="56"/><use xlink:href="#Iran_svg__tb1" x="112"/><use xlink:href="#Iran_svg__tb1" x="168"/></g></g><use xlink:href="#Iran_svg__tb3" x="168"/><use xlink:href="#Iran_svg__tb4" x="392"/></g><g fill="#da0000" transform="matrix(45,0,0,45,315,180)"><g id="Iran_svg__emblem_half"><path d="M-0.54815,0.83638A0.912046,0.912046 0 0,0 0.328544,-0.722384A1,1 0 0,1 -0.54815,0.83638"/><path d="M.618339.661409A.763932.763932 0 0 0 .421644-.741049 1 1 0 0 1 .618339.661409M0 1-.05 0 0-.787278A.309995.309995 0 0 0 .118034-.688191V-.100406L.077809.892905zM-.02-.85 0-.831217A.14431.14431 0 0 0 .252075-.967708.136408.136408 0 0 1 0-.924634"/></g><use xlink:href="#Iran_svg__emblem_half" transform="scale(-1,1)"/></g></svg>