<svg xmlns="http://www.w3.org/2000/svg" xmlns:xlink="http://www.w3.org/1999/xlink" viewBox="0 0 900 600"><defs><path id="Kenya_svg__spearshape" d="M-1,55.4256258422h2V-38C3,-40 3,-43 3,-46C3,-48 3,-56 0,-64.6632301492C-3,-56 -3,-48 -3,-46C-3,-43 -3,-40 -1,-38z" stroke-miterlimit="10" transform="rotate(30)"/></defs><path fill="#fff" d="M0 0H900V600H0z"/><path d="M0 0H900V180H0z"/><path fill="#b00" d="M0 210H900V390H0z"/><path fill="#060" d="M0 420H900V600H0z"/><g transform="translate(450,300) scale(3.75)"><g id="Kenya_svg__spear"><use xlink:href="#Kenya_svg__spearshape"/><use xlink:href="#Kenya_svg__spearshape" fill="#fff"/></g><use xlink:href="#Kenya_svg__spear" transform="scale(-1,1)"/><path d="M-19,24c3,8 13,24 19,24s16,-16 19,-24V-24c-3,-8 -13,-24 -19,-24s-16,16 -19,24z" fill="#b00"/><path id="Kenya_svg__deco_r" d="M19,24c3,-8 5,-16 5,-24s-2,-16 -5,-24c-3,8 -5,16 -5,24s2,16 5,24z" fill="#000"/><use xlink:href="#Kenya_svg__deco_r" transform="scale(-1,1)"/><g fill="#fff"><ellipse rx="4" ry="6"/><path id="Kenya_svg__deco_br" d="M1,5.85c0,0 4,8 4,21s-4,21 -4,21z"/><use xlink:href="#Kenya_svg__deco_br" transform="scale(-1)"/><use xlink:href="#Kenya_svg__deco_br" transform="scale(-1,1)"/><use xlink:href="#Kenya_svg__deco_br" transform="scale(1,-1)"/></g></g></svg>