<svg xmlns="http://www.w3.org/2000/svg" xmlns:xlink="http://www.w3.org/1999/xlink" viewBox="0 0 1200 600"><defs><clipPath id="New_Zealand_svg__Canton"><path d="M 0,0 L 600,0 L 600,300 L 0,300 z"/></clipPath><clipPath id="New_Zealand_svg__Diagonals"><path d="M 0,0 L 300,150 L 0,150 z M 300,0 L 600,0 L 300,150 z M 300,150 L 600,150 L 600,300 z M 300,150 L 300,300 L 0,300 z"/></clipPath><g id="New_Zealand_svg__Pentagram"><g id="New_Zealand_svg__Arm"><path d="M 0,0 L 0,0.5 L 1,0 z" transform="translate(0,-0.324925)"/><path d="M 0,0 L 0,-0.5 L 1,0 z" transform="translate(0,-0.324925) rotate(-36,1,0)"/></g><use xlink:href="#New_Zealand_svg__Arm" transform="scale(-1,1)"/><use xlink:href="#New_Zealand_svg__Arm" transform="rotate(72,0,0)"/><use xlink:href="#New_Zealand_svg__Arm" transform="rotate(-72,0,0)"/><use xlink:href="#New_Zealand_svg__Arm" transform="rotate(-72,0,0) scale(-1,1)"/></g></defs><path fill="#012169" d="M0 0H1200V600H0z"/><g id="New_Zealand_svg__Flag_of_the_United_Kingdom"><path id="New_Zealand_svg__Saint_Andrews_Cross" stroke="#FFF" d="M 0,0 L 600,300 M 0,300 L 600,0" stroke-width="60" clip-path="url(#New_Zealand_svg__Canton)"/><path id="New_Zealand_svg__Saint_Patricks_Cross" stroke="#C8102E" d="M 0,0 L 600,300 M 0,300 L 600,0" stroke-width="40" clip-path="url(#New_Zealand_svg__Diagonals)"/><g id="New_Zealand_svg__Saint_Georges_Cross"><path stroke="#FFF" d="M 300,0 L 300,300 M 0,150 L 600,150" stroke-width="100" clip-path="url(#New_Zealand_svg__Canton)"/><path stroke="#C8102E" d="M 300,0 L 300,300 M 0,150 L 600,150" stroke-width="60" clip-path="url(#New_Zealand_svg__Canton)"/></g></g><g id="New_Zealand_svg__Southern_Cross"><g id="New_Zealand_svg__Gamma_Crucis"><use xlink:href="#New_Zealand_svg__Pentagram" fill="#FFF" transform="translate(900,120) scale(45.4)"/><use xlink:href="#New_Zealand_svg__Pentagram" fill="#C8102E" transform="translate(900,120) scale(30)"/></g><g transform="rotate(82,900,240)"><g id="New_Zealand_svg__Delta_Crucis"><use xlink:href="#New_Zealand_svg__Pentagram" fill="#FFF" transform="translate(900,120) rotate(-82) scale(40.4)"/><use xlink:href="#New_Zealand_svg__Pentagram" fill="#C8102E" transform="translate(900,120) rotate(-82) scale(25)"/></g><g id="New_Zealand_svg__Beta_Crucis"><use xlink:href="#New_Zealand_svg__Pentagram" fill="#FFF" transform="translate(900,380) rotate(-82) scale(45.4)"/><use xlink:href="#New_Zealand_svg__Pentagram" fill="#C8102E" transform="translate(900,380) rotate(-82) scale(30)"/></g></g><g id="New_Zealand_svg__Alpha_Crucis"><use xlink:href="#New_Zealand_svg__Pentagram" fill="#FFF" transform="translate(900,480) scale(50.4)"/><use xlink:href="#New_Zealand_svg__Pentagram" fill="#C8102E" transform="translate(900,480) scale(35)"/></g></g></svg>