<svg xmlns="http://www.w3.org/2000/svg" xmlns:xlink="http://www.w3.org/1999/xlink" viewBox="0 0 120 60"><clipPath id="Niue_svg__t"><path d="M0,0V15H70V30H60zM0,30V40H30V0H60z"/></clipPath><path fill="#012169" d="M0 0H120V60H0z"/><g stroke="#c8102e" stroke-width="6"><path d="M0,0L60,30M60,0L0,30" stroke="#fff"/><path d="M0,0L60,30M60,0L0,30" clip-path="url(#Niue_svg__t)" stroke-width="4"/><path d="M30,0V40M0,15H70" stroke="#fff" stroke-width="10"/><path d="M30,0V40M0,15H70"/></g><path d="M60,0h60V60H0V30H60z" fill="#fedd00"/><g transform="translate(30,15)"><g transform="scale(5.10390485)"><circle r="1" fill="#012169"/><path id="Niue_svg__s" d="M0,-513674 301930,415571 -488533,-158734H488533L-301930,415571" fill="#fedd00" transform="scale(0.00000194676)"/></g><use xlink:href="#Niue_svg__s" transform="translate(-17.5,0.29) scale(3)"/><use xlink:href="#Niue_svg__s" transform="translate(17.5,0.29) scale(3)"/><use xlink:href="#Niue_svg__s" transform="translate(0,10.29) scale(3)"/><use xlink:href="#Niue_svg__s" transform="translate(0,-9.71) scale(3)"/></g></svg>