<svg xmlns="http://www.w3.org/2000/svg" viewBox="0 0 30 15"><clipPath id="Pitcairn_Islands_svg__cp"><path d="M0,0V75H350V150H300zM300,0H150V200H0V150z"/></clipPath><path fill="#012169" d="M0 0H30V15H0z"/><path d="M0,0L300,150M300,0L0,150" stroke="#fff" stroke-width="30" transform="scale(0.05)"/><path d="M0,0L300,150M300,0L0,150" stroke="#c8102e" stroke-width="20" clip-path="url(#Pitcairn_Islands_svg__cp)" transform="scale(0.05)"/><path d="M150,0V200M0,75H350" stroke="#fff" stroke-width="50" transform="scale(0.05)"/><path d="M150,0V200M0,75H350" stroke="#c8102e" stroke-width="30" transform="scale(0.05)"/><path d="M300,0V150H0V300H600V0z" fill="#012169" transform="scale(0.05)"/><g fill="#F7E017" stroke="#000" stroke-width=".015"><path d="M20.018 7.954c-.32.271-.625.667-.7 1.025-.211 1.007-.491 1.231-.923 1.015 0 .541.474.582.682.266 0 .507.184.947.599 1.322.175.158.208.05.125-.125-.083-.175-.083-.74-.249-1.064.266.191.657.083.624-.441-.341.2-.68.192-.715-.283C19.418 9.112 19.635 8.303 20.018 7.954zM19.613 3.949c.023-.2-.02-.405-.166-.534-.282-.248-.558-.166-.764.034-.308-.166-.471.423-.82.324.058.191.15.274.324.208-.183.166 0 .366-.216.565.391.125.599-.091.582-.466.15.133.382.125.507-.025-.208-.067-.209-.247-.125-.416C19.06 3.39 19.646 3.4 19.613 3.949z"/><path fill="#337321" d="M20.515 6.842c-0.441 0.233-1.247 0.133-1.322-0.441 -0.075-0.574 0.482-0.832 0.632-0.906 0.233-0.117 0.416 0.091 0.341 0.333 0.258-0.091 0.316-0.391 0.191-0.565 0.341 0.025 0.657-0.233 0.79-0.599 -0.12 0.114-0.446 0.037-0.714 0.02 0.083-0.091 0.082-0.269 0.057-0.361C20.208 4.613 19.8 4.48 19.26 5.32c0.083-0.291 0.241-0.873 0.333-1.256 0.009-0.038 0.016-0.076 0.021-0.115C19.646 3.4 19.061 3.39 18.936 3.64c0.137 0.154 0.065 0.334 0.016 0.607 -0.058 0.324-0.183 1.073-0.291 1.322 -0.033-0.391-0.291-0.416-0.341-0.607 -0.075 0.05-0.116 0.183-0.1 0.274 -0.092-0.1-0.408 0.025-0.524-0.125 -0.125 0.249 0.075 0.499 0.283 0.607 -0.121 0.008-0.15 0.154-0.283 0.154 0.179 0.208 0.362 0.291 0.574 0.308 0.212 0.017 0.37 0.096 0.499 0.353C18.977 6.95 19.769 7.22 20.515 6.842z"/><path d="M21.613 6.334c-0.249 0.69-0.931 1.181-1.239 1.256 -0.524 0.127-1.592 0.646-1.878 0.913 -0.045-0.01-0.087-0.026-0.118-0.048 -0.141-0.1-0.258-0.424-0.008-0.699 0.782-0.732 1.622-0.416 2.146-0.915 -0.441 0.233-1.247 0.133-1.322-0.441 0.474 0.125 1.331 0.133 2.012-0.599C21.297 5.902 21.563 6.218 21.613 6.334z"/><path fill="#337321" d="M20.018 7.954c-0.395 0.335-0.6 1.158-0.558 1.715 0.012 0.155 0.055 0.26 0.121 0.324 0.029-0.316 0.249-1.133 0.81-1.497 0.474-0.308 1.214-0.998 1.489-1.788 -0.05-0.141-0.133-0.241-0.291-0.341C21.316 7.113 20.587 7.471 20.018 7.954z"/><path fill="#316D3A" d="M21.359 6.014c-0.141 0.212-0.462 0.503-0.769 0.62 0.066-0.075 0.087-0.17 0.091-0.249 -0.391 0.15-1.173 0.133-1.489 0.017 0.474 0.125 1.331 0.133 2.012-0.599C21.272 5.877 21.33 5.943 21.359 6.014z"/><path fill="#337321" d="M18.37 7.756c-0.636 0.595-0.216 1.114 0.033 1.231 -0.066 0.416 0.324 0.366 0.316 0.715 0.158-0.091 0.2-0.333 0.175-0.524 0.2 0.216 0.707-0.025 0.815 0.374 0.067-0.441-0.274-0.881-0.698-0.84 0.175-0.158 0.075-0.416-0.091-0.482 -0.033 0.324-0.399 0.324-0.541 0.225C18.237 8.355 18.12 8.031 18.37 7.756z"/><path d="M19.746 11.54c-0.069 0.04-0.064 0.129-0.021 0.187 0.087 0.116-0.062 0.38 0.22 0.437 0.083 0.017 0.147-0.034 0.179-0.129 0.087-0.262-0.191-0.291-0.216-0.416C19.883 11.494 19.804 11.507 19.746 11.54z"/><path d="M19.983 12.031c-0.093 0.043-0.175 0.104-0.137 0.403 0.015 0.124 0.008 0.424-0.1 0.428 0.066 0.033 0.208 0.069 0.266-0.008 0.056 0.094 0.183 0.067 0.233-0.05 0.066 0.054 0.158-0.037 0.158-0.116 0.058 0.037 0.175-0.017 0.145-0.195 0.071 0.025 0.162-0.025 0.195-0.071 -0.104-0.021-0.366-0.162-0.428-0.274C20.253 12.035 20.091 11.981 19.983 12.031z"/><path d="M18.542 3.62c.042-.062.089-.12.141-.171M20.124 4.721c.073-.042.185-.047.309-.039M20.012 12.854c-.029-.042-.04-.216-.019-.322M20.245 12.804c-.046-.035-.133-.156-.148-.262M20.403 12.688c-.058-.027-.2-.21-.231-.328M20.548 12.492c-.069-.015-.279-.152-.366-.297" fill="none"/><path d="M24.382 7.765c1.023 0.857 1.089 1.538 0.931 1.938 -0.083-0.374-0.507-0.956-0.948-1.106L24.382 7.765z"/><path fill="#337321" d="M22.553 7.282h1.896c0 0 0 0.499 0 2.245 0 1.913-1.064 3.044-2.146 3.642 -1.081-0.599-2.146-1.73-2.146-3.642 0-1.746 0-2.245 0-2.245h1.331c0.002 0.116 0.013 0.291 0.15 0.466C21.952 7.717 22.307 7.482 22.553 7.282z"/><path fill="#006EC7" d="M24.449 7.282c0 0 0 0.499 0 2.245 0 0.577-0.097 1.084-0.262 1.525l-1.883-3.455 -1.883 3.455c-0.165-0.442-0.262-0.948-0.262-1.525 0-1.746 0-2.245 0-2.245H24.449z"/><path d="M24.244 10.887c-0.033 0.102-0.094 0.267-0.14 0.369l-1.8-3.346 -1.8 3.346c-0.047-0.102-0.107-0.267-0.14-0.369l1.941-3.598L24.244 10.887z" stroke="none"/><path d="M23.159 12.118c0.05 0.025 0.142 0.071 0.183 0.088 0.1-0.2 0.116-0.482 0.083-0.732 -0.108 0.275-0.474 0.266-0.574 0.432 0.061 0.031 0.118 0.071 0.167 0.106 -0.125 0.125-0.417 0.334-0.583 0.384v-1.784c0-0.125-0.042-0.229-0.042-0.333 0 0 0-0.286 0-0.369 0-0.083-0.017-0.204-0.091-0.204 -0.075 0-0.091 0.121-0.091 0.204 0 0.083 0 0.369 0 0.369 0 0.104-0.042 0.225-0.042 0.333v1.784c-0.091-0.266-0.45-0.175-0.616-0.441 0.065-0.016 0.134-0.021 0.2-0.008 -0.125-0.424-0.466-0.457-0.532-0.582 0 0.175-0.075 0.582 0.042 0.757 0.026-0.031 0.065-0.064 0.113-0.092 0.141 0.308 0.777 0.309 0.927 0.816C22.423 12.659 22.856 12.443 23.159 12.118z"/><path d="M22.303 10.634c0.141 0 0.59-0.046 0.753-0.046 0.042 0 0.077-0.063 0.077-0.141s-0.034-0.141-0.077-0.141c-0.162 0-0.611-0.046-0.753-0.046 -0.141 0-0.59 0.046-0.753 0.046 -0.042 0-0.077 0.063-0.077 0.141s0.034 0.141 0.077 0.141C21.713 10.588 22.162 10.634 22.303 10.634z"/><path d="M22.212 9.903c-.03-.024-.069-.039-.113-.039-.094 0-.171.07-.171.156 0 .086.076.156.171.156.094 0 .17-.07.17-.156 0-.067.097-.067.097 0 0 .135-.12.244-.267.244-.148 0-.267-.109-.267-.244 0-.135.12-.244.267-.244.044 0 .086.01.123.027C22.219 9.825 22.212 9.867 22.212 9.903zM21.551 10.588c.042 0 .076-.063.076-.141s-.034-.141-.076-.141"/><path d="M21.613 10.588c.042 0 .076-.063.076-.141s-.034-.141-.076-.141M22.024 10.617c.051 0 .092-.076.092-.17 0-.094-.041-.17-.092-.17M22.119 10.624c.053 0 .096-.08.096-.178 0-.098-.043-.178-.096-.178M22.439 10.626c.054 0 .097-.081.097-.18 0-.099-.044-.18-.097-.18M22.539 10.621c.053 0 .096-.078.096-.174 0-.096-.043-.174-.096-.174M22.986 10.59c.043 0 .078-.064.078-.144s-.035-.144-.078-.144M21.376 12.03c.051-.031.113-.059.178-.074M23.068 12.047c-.015-.011-.032-.022-.049-.035M23.159 12.118c.116-.125.213-.266.267-.428"/><path fill="#FFF" d="M21.922 8.87c0-0.041 0.033-0.058 0.072-0.087 0.047-0.035 0.066-0.052 0.108-0.052h0.546c0.04 0 0.05 0.01 0.05 0.048V9.52c0 0.037-0.009 0.048-0.05 0.048h-0.726V8.862"/><path fill="#E5E5E5" d="M22.513 9.633c0.072 0 0.059-0.002 0.109-0.052 0.053-0.052 0.048-0.048 0.048-0.096V8.806c0-0.035-0.009-0.045-0.046-0.045h-0.505c-0.04 0-0.057 0.016-0.1 0.049 -0.036 0.027-0.066 0.044-0.066 0.082v0.741H22.513z"/><path fill="#FFF" d="M22.567 9.617c0 0.037-0.009 0.048-0.05 0.048h-0.546c-0.041 0-0.049-0.01-0.049-0.048V8.875c0-0.037 0.009-0.048 0.049-0.048h0.546c0.041 0 0.05 0.01 0.05 0.048V9.617z"/><path fill="#96877D" d="M23.625 6.847c0.106 0.119 0.141 0.278 0.083 0.434h-0.158c0.066-0.2 0.025-0.39-0.258-0.415 -0.423-0.037-0.915 0.782-1.655 0.881 -0.216-0.258-0.205-0.749 0.07-0.982 -0.142-0.409-0.441-0.859-0.649-1.053 -0.136-0.022-0.293-0.033-0.394-0.027 0.108-0.233 0.416-0.478 0.666-0.578 0.04-0.059 0.084-0.116 0.124-0.167 0.025-0.32 1.547-0.17 1.871 0.029C23.326 5.328 23.467 6.523 23.625 6.847z"/><path d="M21.781 7.066c-.036-.554-.26-1.011-.575-1.322.15.042.457.042.665-.108.274-.183.99-.503 1.252-.366.021.046.033.15.017.216-.062-.166-.753.091-.948.17-.187.087-.27.204-.204.466-.108-.091-.071-.179-.183-.245C21.85 5.985 21.887 6.18 21.9 6.338c-.042-.112-.116-.353-.279-.495.141.274.264.933.206 1.283.112 0 .36-.11.459-.189-.087.125-.339.212-.501.245-.073.087-.123.312-.119.437C21.655 7.465 21.703 7.09 21.781 7.066zM23.625 6.847c-.138-.153-.395-.236-.723-.147.05-.025.158-.067.254-.083-.012-.087-.091-.462-.104-.553l.092-.037c.046.225.104.482.141.586.029.008.096.021.154.05-.025-.087-.166-.715-.162-.782l.125-.067C23.451 6.155 23.53 6.65 23.625 6.847z" fill="#000" stroke="none"/><path fill="#96877D" d="M23.551 7.282c.066-.2.025-.39-.258-.415-.219-.019-.457.194-.738.415H23.551zM21.713 5.49c-.125.017-.403-.008-.545-.054.008-.038.023-.076.041-.118-.087.058-.253.172-.316.251C21.093 5.611 21.505 5.632 21.713 5.49z"/><path fill="none" d="M21.708 6.766c.046.133.076.261.08.375M21.331 5.108c-.075.11-.141.228-.163.328.141.046.42.071.545.054"/><path fill="none" d="M21.059 5.713c0.054 0.009 0.104 0.019 0.147 0.031 0.15 0.042 0.457 0.042 0.665-0.108 0.208-0.15 0.773-0.615 1.414-0.665"/><path fill="none" d="M20.894 5.569c0.2 0.042 0.612 0.062 0.819-0.079 0.482-0.328 0.948-0.52 1.414-0.545"/><path fill="#337321" d="M24.382 7.765c.698.482 1.214.948 1.364 1.696.15.748.433.948.782.748-.083.432-.516.482-.881.15.033.499-.166 1.098-.682 1.314-.033-.299.165-.536.108-.782-.025-.108-.033-.358.108-.474-.274.091-.707-.083-.748-.491.316.15.723.175.881-.225C25.471 9.303 25.405 8.621 24.382 7.765zM25.264 3.873c.216-.565.782-.507.973-.266.557-.316.632.399 1.106.258-.008.133-.166.258-.341.249.183.166-.075.416.316.565-.333.166-.798-.008-.923-.466-.108.216-.499.216-.657.042.341-.091.316-.407.125-.532C25.67 3.597 25.33 3.648 25.264 3.873zM23.577 5.118c.155.5.476.966.822 1.283.399.366 1.002.274 1.339-.075.008.696-.713.75-1.114.532-.177-.096-.32-.046-.15.108.258.233.822.406 1.488.549 1.164.249.749 1.173.408 1.164.098-.002.178-.104.037-.231-1.01-.909-3.064-.551-3.031-2.58-.216.532-1.106.324-.69-.308.133.108.366.116.433-.05.052-.129.018-.354-.215-.548.038-.003.121 0 .112-.096.01.056.061.139.192.111.037.059.077.098.13.077.01-.004.042-.02.029-.079C23.377 5.087 23.508 5.126 23.577 5.118z"/><path d="M24.623 6.858c.482.316 1.028.316 1.53-.266.158-.183.407-.341.582-.358.175-.017.166-.183.299-.216-.083-.025-.116-.125-.241-.112.312-.108.22-.358.374-.478-.125.046-.32-.141-.499.096.046-.108-.017-.237-.062-.287.017.125-.245.15-.295.466-.028.177-.125.166-.141-.108-.012-.201-.108-.757-.224-1.039-.116-.283-.143-.671.015-.729-.024-.04-.057-.076-.098-.102-.193-.126-.532-.075-.599.15-.216.565.391.89.341 1.505-.091-.457-.832-.574-.823-1.023-.241.108-.208.308-.116.466-.15-.233-.491.15-.782-.166-.033.416.333.574.632.59-.15.266.05.491.249.565.008-.466.963-.275.973.524C25.746 7.016 25.014 7.074 24.623 6.858zM25.962 7.515c1.164.249.749 1.173.408 1.164-.217-.005-.424-.187-.437-.345-.249.133-.183.395.008.499-.524-.062-.744.283-.757.661.096-.175.387-.187.495-.15.108.037.387.058.499-.067-.092.079.058.262-.071.403.437-.017.628-.424.553-.603C27.226 8.563 27.118 7.723 25.962 7.515zM25.076 11.466c.076.047.066.147.015.21-.103.126.052.427-.265.478-.094.015-.163-.045-.194-.152-.086-.296.226-.316.259-.455C24.925 11.409 25.012 11.426 25.076 11.466z"/><path d="M24.79 12.003c0.102 0.052 0.19 0.124 0.136 0.456 -0.023 0.138-0.028 0.473 0.093 0.482 -0.076 0.034-0.235 0.067-0.297-0.021 -0.067 0.102-0.207 0.066-0.258-0.066 -0.077 0.057-0.175-0.049-0.171-0.137 -0.067 0.039-0.194-0.026-0.154-0.224 -0.08 0.025-0.18-0.035-0.215-0.087 0.117-0.019 0.415-0.165 0.49-0.288C24.488 11.996 24.671 11.943 24.79 12.003z"/><path fill="none" d="M24.721 12.921c.034-.045.054-.24.035-.359M24.464 12.855c.053-.037.155-.168.176-.286M24.292 12.718c.066-.028.232-.226.272-.357M24.138 12.494c.077-.013.318-.157.421-.316"/><path d="M23.376 5.869c-.014.852.34 1.284.831 1.564-.182-.109-.103-.483-.349-.604.058-.004.15.079.295.046-.071-.158-.187-.399-.457-.432.071-.008.225.017.324-.021C23.879 6.205 23.505 6.309 23.376 5.869zM23.288 5.058c-.03-.01-.055-.04-.08-.079-.131.028-.182-.055-.192-.111.008.096-.074.092-.113.095.234.194.268.419.216.548-.067.166-.299.158-.433.05-.017.353.441.47.607.025 0 .075.096.067.121.166C23.532 5.561 23.442 5.286 23.288 5.058z"/><path fill="#337321" d="M22.557 3.37c-0.208-0.191-0.304-0.511-0.295-0.694 0.008-0.183 0.083-0.383 0.349-0.299 -0.083 0-0.025 0.166-0.112 0.183 0.071 0.025 0.166-0.033 0.179-0.071 0.017 0.058 0.125 0.042 0.133 0.108 0.042-0.033-0.004-0.195-0.066-0.229 0.046-0.025 0.071-0.154 0.05-0.216 -0.042 0.008-0.104 0.067-0.116 0.15 0.021-0.067-0.004-0.233-0.121-0.258 -0.033 0.046-0.042 0.158 0.004 0.22 -0.108-0.025-0.266 0.046-0.304 0.137 0.008-0.11 0.024-0.267 0.092-0.366 0.023-0.033-0.033-0.091-0.077-0.012 -0.081-0.158-0.297-0.241-0.393-0.162s-0.224-0.037-0.303 0.087c-0.079 0.125-0.347 0.138-0.333 0.27 0.008 0.079-0.011 0.201-0.05 0.245 -0.096 0.108 0.046 0.187 0.071 0.283 -0.017-0.316 0.486-0.931 0.99-0.69 -0.046 0.079-0.086 0.237-0.1 0.428 -0.021 0.283 0.021 0.682 0.295 0.915L22.557 3.37z"/><path fill="#c8102e" d="M22.706 2.38c-0.003-0.075 0.127-0.172 0.301-0.17 0.21 0.002 0.372 0.193 0.54 0.175 0.168-0.019 0.085 0.075 0.05 0.1 -0.035 0.025-0.056 0.062-0.044 0.108 0.012 0.046-0.009 0.076-0.077 0.033 -0.15-0.094-0.299 0.037-0.497-0.035C22.81 2.527 22.711 2.492 22.706 2.38z"/><path fill="#96877D" d="M21.85 4.343c-0.083-0.262-0.399-0.549-0.553-0.615l-0.008-0.141c0.083-0.033 0.283-0.191 0.374-0.279 0.624 0.299 1.472-0.125 1.863-0.565l0.15 0.091 -0.075 0.1 -0.079-0.042c-0.096 0.116-0.453 0.452-0.561 0.523 0.145 0.037 0.344 0.062 0.399 0.059C23.709 3.224 23.983 3 24.116 2.983l0.112 0.15 -0.1 0.071 -0.079-0.046c-0.374 0.308-0.798 0.981-0.965 1.43C22.852 4.538 22.02 4.571 21.85 4.343z"/><path fill="none" d="M22.961 3.415c-0.054-0.014-0.1-0.029-0.129-0.045 -0.067 0.062-0.233 0.116-0.445 0.125"/><path fill="none" d="M21.883 4.251c-0.056-0.31 0.033-0.653 0.191-0.757 0.345 0.229 0.936 0.229 1.285-0.021"/><path fill="none" d="M21.883 4.089c.266-.008.844.037.985.058.141.021.378.079.345.15M22.006 4.045l.077-.076-.077-.076L21.93 3.968 22.006 4.045z"/><path fill="#337321" d="M22.187 2.497c-0.096-0.133-0.359-0.175-0.416 0.004 -0.025 0.079-0.062 0.162-0.125 0.2 -0.062 0.037-0.048 0.151-0.021 0.2 0.066 0.121 0.008 0.237 0.137 0.316 0-0.096 0.141-0.195 0.262-0.22 0.121-0.025 0.303-0.133 0.328-0.254C22.378 2.621 22.42 2.521 22.187 2.497z"/><path fill="#96877D" d="M21.588 3.694h0.033l0.001 0.227c0.007 0.002 0.014 0.006 0.02 0.01l0.196-0.113 0.017 0.029 -0.197 0.114c0.001 0.007 0.002 0.015 0.001 0.022l0.196 0.113 -0.017 0.029L21.64 4.013c-0.005 0.005-0.012 0.01-0.019 0.012l0 0.226h-0.033l0-0.227c-0.007-0.002-0.014-0.006-0.02-0.01l-0.196 0.113 -0.017-0.029 0.197-0.114c-0.001-0.007-0.002-0.015-0.001-0.022l-0.196-0.113 0.017-0.029 0.197 0.113c0.005-0.005 0.012-0.01 0.019-0.012L21.588 3.694 21.588 3.694z"/><path fill="#96877D" d="M21.884 4.25c-0.071 0.072-0.17 0.116-0.28 0.116 -0.218 0-0.394-0.176-0.394-0.394 0-0.218 0.176-0.394 0.394-0.394 0.128 0 0.241 0.061 0.313 0.155 -0.02 0.05-0.044 0.161-0.046 0.211 -0.014-0.136-0.128-0.242-0.268-0.242 -0.149 0-0.269 0.121-0.269 0.269 0 0.149 0.121 0.269 0.269 0.269 0.124 0 0.232-0.087 0.263-0.202C21.867 4.09 21.869 4.209 21.884 4.25z"/><path fill="#337321" d="M21.438 4.625c-0.025-0.029-0.071-0.108-0.066-0.166 0.037-0.004 0.108 0.021 0.141 0.054 -0.004-0.042-0.021-0.133-0.012-0.175 0.046 0.017 0.141 0.071 0.175 0.133 -0.008-0.042-0.025-0.15-0.008-0.216 0.05 0.029 0.133 0.108 0.15 0.162 0.004-0.083 0.033-0.22 0.058-0.254 0.037 0.037 0.096 0.071 0.133 0.121 0.008-0.067 0.042-0.146 0.091-0.166 0.037 0.042 0.096 0.137 0.108 0.245 0.037-0.012 0.087-0.075 0.108-0.108 0.021 0.033 0.042 0.091 0.029 0.162 0.046-0.042 0.1-0.1 0.112-0.15 0.033 0.025 0.096 0.087 0.112 0.154 -0.008-0.054-0.004-0.15-0.021-0.204 0.062 0.033 0.112 0.091 0.125 0.154 0.017-0.058 0.054-0.162 0.087-0.187 0.033 0.067 0.067 0.146 0.062 0.212 0.021-0.042 0.054-0.116 0.087-0.133 0.029 0.046 0.025 0.146 0.017 0.2 0.029-0.042 0.083-0.091 0.116-0.108 0.004 0.025 0.008 0.075 0 0.112 0.037-0.021 0.1-0.133 0.121-0.191 0.058 0.029 0.116 0.129 0.121 0.179 0.042-0.017 0.125-0.091 0.15-0.133 0 0.029 0.013 0.108-0.004 0.17 0.025-0.025 0.05-0.075 0.062-0.096 0.017 0.042 0.004 0.141-0.013 0.195 0.037-0.033 0.092-0.054 0.125-0.054 0.004 0.071-0.046 0.195-0.092 0.287C23.114 4.713 22.278 4.671 21.438 4.625z"/><path d="M22.83 2.423c-0.002-0.031 0.066-0.1 0.189-0.099 0.147 0.001 0.283 0.109 0.4 0.101 0.118-0.008 0.06 0.031 0.035 0.041 -0.025 0.01-0.039 0.026-0.031 0.044 0.009 0.019-0.006 0.031-0.054 0.014 -0.105-0.038-0.21 0.015-0.348-0.014C22.902 2.483 22.833 2.469 22.83 2.423z" stroke="none"/><path d="M21.567 4.875C21.442 5.025 21.318 5 21.293 4.904c-.025-.096.067-.141.033-.225-.033-.083.054-.121.096-.083.042.037.175-.083.233.042.058.125.104.212.071.262C21.692 4.95 21.592 4.925 21.567 4.875zM22.103 4.65c-.023-.055.106-.16.173-.085.067.075.171-.081.229.037.058.119.077.181.106.247.029.067-.158.102-.216.044.008.039-.162.07-.208-.042C22.162 4.792 22.135 4.723 22.103 4.65zM22.968 4.719c-.031-.058.121-.141.2-.035.021-.044.171-.052.181.075.01.127.015.202.019.252.004.05-.091.096-.16-.031-.123.025-.179-.044-.193-.116C23 4.79 22.985 4.754 22.968 4.719z"/><path fill="#337321" d="M21.648 4.636c-.019-.042.106-.125.191-.062.085.062.203-.054.254.058.102.227.108.243.077.287-.031.044-.164.027-.198-.033-.006.042-.121.035-.181.002C21.723 4.85 21.675 4.711 21.648 4.636zM22.523 4.646c-.029-.064.166-.121.252-.008.044-.04.139-.042.193.081.054.123.062.191.023.222-.028.022-.129.039-.162-.017-.046.029-.187.004-.218-.075C22.58 4.771 22.553 4.702 22.523 4.646zM23.351 4.769c-.004-.058.102-.085.141 0 .04.085.166.008.177.15.002.027-.015.131-.054.181s-.233 0-.245-.106C23.357 4.887 23.353 4.827 23.351 4.769z"/><path d="M21.567 4.875c-.046-.062-.108-.162-.187-.054M21.973 4.885c-.027-.035-.062-.094-.075-.139M22.395 4.894c-.029-.021-.073-.062-.096-.106M22.357 4.675c.073.008.123.077.145.108.023.031.071.087.108.094M22.829 4.925c-.025-.04-.05-.075-.056-.104M22.775 4.638c.025.035.044.064.058.098M23.207 4.979c-.033-.062-.085-.123-.129-.143M23.191 4.75c.004.123.168.131.175.218M23.492 4.769c.017.031.023.062.025.114" fill="none"/></g></svg>