<svg viewBox="0 0 1371.6 914.4" xmlns="http://www.w3.org/2000/svg"><path d="m0 0h1371.6v914.40002h-1371.6z" fill="#ee2436"/><path d="M.000488 457.19995h1371.600012v457.20004h-1371.600012zM457.99329 228.5999a168.275 168.275 0 1 1-336.55 0 168.275 168.275 0 1 1 336.55 0z" fill="#fff"/><path d="m534.16199 228.5999a168.275 168.275 0 1 1 -336.55 0 168.275 168.275 0 1 1 336.55 0z" fill="#ee2436"/><path d="m447.80269 234.2201 9.8369-30.275-25.7534-18.711h31.833l9.837-30.275 9.8369 30.275h31.833l-25.7534 18.711 9.8368 30.275-25.7534-18.711zM356.00849 167.5259l9.8368-30.275-25.7534-18.711h31.833l9.837-30.275101 9.8369 30.275101h31.833l-25.7534 18.711 9.8368 30.275-25.7534-18.711zM412.74069 342.1313l9.8369-30.275-25.7534-18.711h31.833l9.837-30.275 9.8369 30.275h31.833l-25.7534 18.711 9.8368 30.275-25.7534-18.711zM299.27599 342.1312l9.8369-30.275-25.7534-18.7109h31.833l9.837-30.2751 9.8369 30.2751h31.833l-25.7534 18.7109 9.8368 30.275-25.7534-18.711zM264.21419 234.2202l9.8368-30.2749-25.7534-18.711h31.833l9.837-30.2751 9.8369 30.2751h31.833l-25.7534 18.711 9.8368 30.2749-25.7534-18.711z" fill="#fff"/></svg>