<svg xmlns="http://www.w3.org/2000/svg" viewBox="0 0 1200 600"><clipPath id="Tuvalu_svg__c1"><path d="M0,0H650V350H0z"/></clipPath><clipPath id="Tuvalu_svg__c2"><path d="M0,0V150H650V300H600zM0,300V350H300V0H600z"/></clipPath><path fill="#012169" d="M0 0H1200V600H0z"/><path d="M0,0 600,300M600,0 0,300" stroke="#fff" stroke-width="60" clip-path="url(#Tuvalu_svg__c1)"/><path d="M0,0 600,300M600,0 0,300" stroke="#c8102e" stroke-width="40" clip-path="url(#Tuvalu_svg__c2)"/><path d="M0,150H650M300,0V350" stroke="#fff" stroke-width="100"/><path d="M0,150H650M300,0V350" stroke="#c8102e" stroke-width="60"/><path d="M0,300H600V0H1200V600H0z" fill="#009cde"/><path d="m645.3396 490.91279 29.4368 90.597-77.0665-55.992h95.2594l-77.0665 55.993zM817.46233 463.99977l-29.43671 90.59703-29.43684-90.59703 77.06648 55.99207-95.25997.00074zM817.46233 342.01619l-29.43671 90.59703-29.43684-90.59703 77.06648 55.99207-95.25997.00074zM943.46715 433.16817l-29.43671 90.59703-29.43683-90.59703 77.06647 55.99207-95.25997.00073zM943.46715 167.75458l-29.43671 90.59703-29.43683-90.59703 77.06647 55.99207-95.25997.00073zM996.44159 339.96479l29.43681 90.597-77.06651-55.992h95.25941l-77.06651 55.993zM1049.3647 131.56139l-29.4367 90.59703-29.43681-90.59703 77.06651 55.99207-95.26001.00073zM1102.8361 271.47361l29.4368 90.597-77.0665-55.992h95.2594l-77.0665 55.993zM1102.8361 37.4052l29.4368 90.597-77.0665-55.992h95.2594l-77.0665 55.993z" fill="#fedd00"/></svg>