<svg width="48" height="48" viewBox="0 0 48 48" fill="none" xmlns="http://www.w3.org/2000/svg">
<path d="M5.2168 6.035V28.476C18.3338 24.006 31.4408 32.947 44.5568 28.476V6.035C31.4408 10.505 18.3338 1.564 5.2168 6.035Z" fill="black"/>
<path opacity="0.9" d="M5.2168 6.035V28.476C18.3338 24.006 31.4408 32.947 44.5568 28.476V6.035C31.4408 10.505 18.3338 1.564 5.2168 6.035Z" fill="url(#paint0_linear)"/>
<path d="M5.59569 5.133H3.80469V45.685H5.59569V5.133Z" fill="url(#paint1_linear)"/>
<path d="M4.69945 5.58601C5.60244 5.58601 6.33445 4.854 6.33445 3.95101C6.33445 3.04802 5.60244 2.31601 4.69945 2.31601C3.79647 2.31601 3.06445 3.04802 3.06445 3.95101C3.06445 4.854 3.79647 5.58601 4.69945 5.58601Z" fill="url(#paint2_radial)"/>
<defs>
<linearGradient id="paint0_linear" x1="5.2168" y1="17.256" x2="44.5568" y2="17.256" gradientUnits="userSpaceOnUse">
<stop stop-color="#0F0F0F" stop-opacity="0.263"/>
<stop offset="0.017" stop-color="#1D1D1D" stop-opacity="0.267"/>
<stop offset="0.13" stop-color="#6B6B6B" stop-opacity="0.291"/>
<stop offset="0.2" stop-color="#888888" stop-opacity="0.3"/>
<stop offset="0.269" stop-color="#BDBDBD" stop-opacity="0.179"/>
<stop offset="0.346" stop-color="#E0E0E0" stop-opacity="0.1"/>
<stop offset="0.448" stop-color="#818181" stop-opacity="0.058"/>
<stop offset="0.54" stop-opacity="0"/>
<stop offset="0.554" stop-color="#1E1E1E" stop-opacity="0.153"/>
<stop offset="0.577" stop-color="#353535" stop-opacity="0.268"/>
<stop offset="0.643" stop-color="#3B3B3B" stop-opacity="0.3"/>
<stop offset="0.793" stop-color="#A5A5A5" stop-opacity="0.3"/>
<stop offset="0.846" stop-color="#787878" stop-opacity="0.3"/>
<stop offset="0.912" stop-color="#4E4E4E" stop-opacity="0.3"/>
<stop offset="0.952" stop-color="#292929" stop-opacity="0.375"/>
<stop offset="1" stop-color="#161616" stop-opacity="0.414"/>
</linearGradient>
<linearGradient id="paint1_linear" x1="3.08569" y1="25.408" x2="5.76069" y2="25.408" gradientUnits="userSpaceOnUse">
<stop stop-color="#A8A8A8"/>
<stop offset="0.009" stop-color="#9C9C9C"/>
<stop offset="0.035" stop-color="#808080"/>
<stop offset="0.06" stop-color="#6C6C6C"/>
<stop offset="0.086" stop-color="#606060"/>
<stop offset="0.112" stop-color="#5C5C5C"/>
<stop offset="0.342" stop-color="white"/>
<stop offset="0.496" stop-color="#989898"/>
<stop offset="0.613" stop-color="#505050"/>
<stop offset="0.667" stop-color="#343434"/>
<stop offset="0.813" stop-color="#7C7C7C"/>
<stop offset="0.821" stop-color="#767676"/>
<stop offset="0.896" stop-color="#464646"/>
<stop offset="0.933" stop-color="#343434"/>
</linearGradient>
<radialGradient id="paint2_radial" cx="0" cy="0" r="1" gradientUnits="userSpaceOnUse" gradientTransform="translate(4.63545 3.33401) rotate(90) scale(2.149)">
<stop stop-color="white"/>
<stop offset="0.116" stop-color="#DFDFDF"/>
<stop offset="0.393" stop-color="#989898"/>
<stop offset="0.522" stop-color="#7C7C7C"/>
<stop offset="0.551" stop-color="#767676"/>
<stop offset="0.806" stop-color="#464646"/>
<stop offset="0.933" stop-color="#343434"/>
</radialGradient>
</defs>
</svg>
